<?xml version="1.0" standalone="no"?>
<!DOCTYPE svg PUBLIC "-//W3C//DTD SVG 20010904//EN"
 "http://www.w3.org/TR/2001/REC-SVG-20010904/DTD/svg10.dtd">
<svg version="1.0" xmlns="http://www.w3.org/2000/svg"
 width="700.000000pt" height="700.000000pt" viewBox="0 0 700.000000 700.000000"
 preserveAspectRatio="xMidYMid meet">
<metadata>
Created by potrace 1.14, written by Peter Selinger 2001-2017
</metadata>
<g transform="translate(0.000000,700.000000) scale(0.100000,-0.100000)"
fill="#000000" stroke="none">
<path d="M0 3500 l0 -3500 3500 0 3500 0 0 3500 0 3500 -3500 0 -3500 0 0
-3500z m3894 2430 c267 -40 532 -123 721 -225 232 -126 500 -344 626 -511 130
-171 259 -396 308 -536 l30 -88 -478 0 -479 0 -31 54 c-95 168 -326 330 -595
415 -355 113 -847 103 -1113 -24 -98 -46 -155 -87 -230 -163 -71 -73 -125
-171 -144 -259 -16 -79 -6 -204 22 -278 32 -87 135 -188 249 -244 168 -82 259
-100 785 -151 723 -71 791 -82 1013 -155 164 -55 277 -109 407 -196 297 -199
483 -471 542 -792 25 -138 23 -382 -5 -514 -60 -278 -171 -484 -360 -665 -288
-275 -650 -435 -1142 -505 -97 -13 -193 -18 -430 -18 -269 0 -322 3 -451 23
-275 43 -497 109 -729 219 -226 106 -358 197 -518 356 -192 189 -350 441 -441
699 l-30 88 478 0 479 0 25 -43 c80 -136 202 -256 340 -335 168 -96 434 -166
693 -181 395 -23 734 44 930 184 216 155 291 376 204 609 -64 170 -289 292
-640 346 -36 5 -283 32 -550 60 -539 56 -631 69 -805 110 -298 71 -519 190
-696 377 -91 96 -149 178 -200 287 -97 208 -123 350 -116 636 4 176 8 206 35
312 116 447 474 804 997 993 180 66 407 113 660 139 109 11 505 -4 639 -24z"/>
</g>
</svg>
