<svg width="178" height="51" viewBox="0 0 178 51" fill="none" xmlns="http://www.w3.org/2000/svg">
<path d="M126.325 19.4517H119.722V43.6103H126.325V19.4517Z" fill="#D7D7D7"/>
<path d="M110.357 19.4517L103.874 37.1199L97.5108 19.4517H90.9082L99.792 43.6103H101.473H106.275H108.076L116.96 19.4517H110.357Z" fill="#D7D7D7"/>
<path d="M149.496 24.8603V19.5718H141.572V12.8411H134.969V19.4516H129.807V24.7401H134.969V35.0766C134.969 40.4853 137.61 43.9708 144.454 43.9708C147.095 43.9708 149.376 43.0093 149.376 43.0093L148.535 37.8411C148.535 37.8411 147.215 38.2016 145.654 38.2016C143.733 38.2016 141.452 37.3603 141.452 34.5958V24.6199H149.496V24.8603Z" fill="#D7D7D7"/>
<path d="M85.9852 43.6105H92.9489L79.9823 8.27393H78.9018H76.5006H74.8198L61.9736 43.6105H68.937L71.4582 36.8797H83.5837L85.9852 43.6105ZM73.3791 31.5913L77.4611 20.4133L81.5433 31.5913H73.3791Z" fill="#D7D7D7"/>
<path d="M164.623 18.8508C157.54 18.8508 151.657 24.4999 151.657 31.4711C151.657 38.4422 157.42 44.0912 164.623 44.0912C171.707 44.0912 177.59 38.4422 177.59 31.4711C177.59 24.4999 171.827 18.8508 164.623 18.8508ZM164.623 38.0816C160.901 38.0816 158.02 35.197 158.02 31.5912C158.02 27.9855 161.022 25.1008 164.623 25.1008C168.345 25.1008 171.227 27.9855 171.227 31.5912C171.346 35.197 168.345 38.0816 164.623 38.0816Z" fill="#D7D7D7"/>
<path d="M127.285 12.3603C127.285 14.7642 125.364 16.567 123.083 16.567C120.681 16.567 118.881 14.6439 118.881 12.3603C118.881 9.95648 120.802 8.15356 123.083 8.15356C125.364 8.15356 127.285 10.0766 127.285 12.3603Z" fill="#D7D7D7"/>
<path d="M23.0749 11.9998C23.0749 18.1297 18.1526 23.0575 12.0296 23.0575C5.78663 23.1777 0.864258 18.1297 0.864258 11.9998C0.864258 5.87003 5.78663 0.942139 11.9096 0.942139C18.1526 0.942139 23.0749 5.87003 23.0749 11.9998Z" fill="#D7D7D7"/>
<path d="M50.8081 37.4806C50.8081 44.9326 44.8051 50.9422 37.3616 50.9422C29.918 50.9422 23.915 44.9326 23.915 37.4806C23.915 30.0287 29.918 24.0191 37.3616 24.0191C44.8051 23.8989 50.8081 30.0287 50.8081 37.4806Z" fill="#D7D7D7"/>
<path d="M46.0061 11.9998C46.0061 16.8075 42.1642 20.6536 37.3619 20.6536C32.5596 20.6536 28.7178 16.8075 28.7178 11.9998C28.7178 7.1921 32.5596 3.34595 37.3619 3.34595C42.1642 3.34595 46.0061 7.1921 46.0061 11.9998Z" fill="#D7D7D7"/>
<path d="M18.2722 37.4807C18.2722 40.9662 15.5108 43.7307 12.0292 43.7307C8.54746 43.7307 5.78613 40.9662 5.78613 37.4807C5.78613 33.9951 8.54746 31.2307 12.0292 31.2307C15.3907 31.1105 18.2722 33.9951 18.2722 37.4807Z" fill="#D7D7D7"/>
</svg>
