<svg width="123" height="51" viewBox="0 0 123 51" fill="none" xmlns="http://www.w3.org/2000/svg">
<path d="M7.80005 45.0999L8.50005 45C12.8 44 17 43.2 25 43.2C31.2 43.2 41.5 44.4 56.5 47C64.3 48.3 72.7 49 81.4 49C104.5 49 115 43.3999 120 40.7999L121.2 40.2V7.39995L118.7 8.59995C117.9 8.99995 116.8 9.39995 115.5 9.79995C115.5 7.39995 115.5 1.19995 115.5 1.19995L113 2.39995C108.3 4.59995 97.1 7.89995 85.3 7.89995C72.3 7.89995 62 6.99995 53 5.19995C41.5 2.79995 32.7 1.79995 22.4 1.79995C19.1 1.79995 6.80005 3.59995 2.60005 6.49995L1.80005 6.99995V41C1.80005 41 3.00005 40.3 4.30005 39.7C5.60005 39.2 7.20005 38.6999 7.80005 38.5999V45.0999Z" fill="#313131"/>
<path d="M9.6001 14.6C14.4001 12.6 24.1001 10.9 26.9001 10.9C38.3001 10.9 47.3001 12.2 57.2001 14.2C66.0001 16 76.3001 15.9 89.9001 15.9C102.6 15.9 115.3 12.3 119.5 10.3V39C114.7 41.5 104.6 47.2001 81.5001 47.2001C73.9001 47.2001 65.6001 46.7001 56.9001 45.2001C45.6001 43.3001 32.8001 41.4001 25.1001 41.4001C18.0001 41.4001 13.5001 42.3 9.7001 43.1V14.6H9.6001Z" fill="#D7D7D7"/>
<path d="M4.80005 9.70005C8.60005 7.20005 20.4001 5.30005 23.7001 5.30005C35.0001 5.30005 44.0001 6.60005 53.9001 8.60005C62.7001 10.4 73 11.4 86.6 11.4C99.3 11.4 111.3 7.80005 115.6 5.80005V35.9001C108.9 39.8001 96.6 42.3 84.6 42.3C69.2 42.3 61.3 41.0001 53.6 39.7001C42.3 37.7001 31.5 36.6 24.6 36.6C17.6 36.6 8.30005 37.9001 4.80005 39.4001C4.80005 39.6001 4.80005 9.70005 4.80005 9.70005Z" fill="#313131"/>
<path d="M3.6001 7.9C7.4001 5.4 19.2001 3.5 22.4001 3.5C33.8001 3.5 42.8001 4.8 52.7001 6.8C61.5001 8.6 71.8001 9.6 85.4001 9.6C98.0001 9.6 109.5 6 113.8 4V34.8C107.7 38.4 94.8001 40.7 83.3001 40.7C69.5001 40.7 61.0001 39.4 52.3001 37.9C41.0001 36 31.4001 35 23.7001 35C16.7001 35 6.9001 36.4 3.6001 38.1C3.6001 38.4 3.6001 7.9 3.6001 7.9Z" fill="#D7D7D7"/>
<path d="M18.4 13.2999C19.3 13.2999 20.1 13.5999 20.8 14.1999L21.8 11.9999C20.6 11.2999 18.9 10.5999 17.2 10.5999C14.7 10.5999 11.9 12.1999 11.9 14.9999C11.9 16.0999 12.6 17.6999 13.5 18.2999C9.30005 19.3999 7.30005 22.1999 7.30005 24.6999C7.30005 28.1999 9.90005 30.1999 14.4 30.1999C17.7 30.1999 21 28.5999 20.6 24.6999C19.3 25.9999 18 26.9999 15.8 26.9999C13.6 26.9999 12.1 25.6999 12.1 24.0999C12.1 20.6999 16.1 19.7999 19 19.8999L19.7 17.5999C19.5 17.5999 19.3 17.5999 19.2 17.5999C17.6 17.5999 16.1 16.6999 16.1 15.1999C16 13.9999 17.2 13.2999 18.4 13.2999Z" fill="#313131"/>
<path fill-rule="evenodd" clip-rule="evenodd" d="M75.3 25.7C74.8 26.4 73.5 27.5 72.6 27.5C71.5 27.5 71.4 26.2 71.4 25.4C71.4 23.3 72.6 18 75.2 18C75.8 18 76.2 18 76.8 18.3L75.3 25.7ZM79.8 22.9C80.6 18.8 80.6 18.4 81.4 16C80 15.9 78.8 16.1 77.8 16.4C77 16.1 76.2 15.7 75.3 15.7C70.3 15.7 67 20.9 67 25.5C67 28.1 68.2 30 71 30C72.5 30 74.3 29.1 75.2 28.1V28.3C75.2 29.2 75.5 29.7 76.6 29.7H79.4C79.3 29.2 79.2 28.7 79.2 28.2C79.1 27.7 79.1 26.5 79.8 22.9Z" fill="#313131"/>
<path d="M31.4 15.6999C29.9 15.6999 28.4999 16.2999 27.2999 17.2999C27.4999 16.1999 28.2 13.1999 28.2 12.4999C28.2 11.8999 27.8999 11.5999 27.2999 11.5999H24.2C24.1 12.8999 23.9999 14.1999 23.7999 15.4999L22 25.6999C21.8 26.9999 21.6 28.3999 21.2 29.6999H25.7C25.9 26.1999 26.6 22.7999 27.2 19.2999C27.8 18.6999 28.6 18.1999 29.5 18.1999C30.2 18.1999 31 18.6999 31 19.4999C31 19.6999 31 19.8999 30.9 20.0999L29.9 26.3999C29.8 26.8999 29.7 27.2999 29.7 27.7999C29.7 29.2999 30.5 29.7999 31.9 29.7999C32.5 29.7999 33.1 29.7999 33.7 29.6999C33.7 29.4999 33.5999 29.3999 33.5999 29.1999C33.5999 28.3999 33.6999 27.5999 33.7999 26.8999L34.9 19.7999C35 19.3999 35 19.0999 35 18.6999C34.9 16.7999 33.3 15.6999 31.4 15.6999Z" fill="#313131"/>
<path d="M46.2001 16C45.8001 15.8 45.7001 15.8 45.2001 15.8C43.4001 15.8 42.7001 16.8 41.5001 17.9C41.6001 17.2 41.3001 16.1 40.5001 16.1H37.7001C37.8001 16.6 37.8001 17.1 37.8001 17.6C37.8001 18.4 37.6001 20.6 37.3001 22.3C36.8001 25.7 36.4001 28.2 35.9001 29.8H40.2001C40.3001 28.5 40.4001 26.5 41.1001 23C41.5001 20.9 42.7001 18.9 44.3001 18.9C44.8001 18.9 45.3001 19 45.7001 19.2L46.2001 16Z" fill="#313131"/>
<path d="M62.7 15.7C61.2 15.7 59.4 16.4 58.4 17.4C58 16.2 56.7 15.7 55.5 15.7C54.1 15.7 52.4 16.5 51.3 17.3C51.3 17.3 51.3 17.3 51.3 17.2C51.3 16.6 51 16 50.4 16H47.4C47.3 17.7 47.2 18.5 46.6 22C45.9 26.4 45.4 29 45 29.7H49.4C49.4 28.4 49.6 27.1 49.8 25.9L51.1 19.3C51.6 18.8 52.4 18.3 53.2 18.3C53.9 18.3 54.5 18.7 54.5 19.4C54.5 20.1 54.4 20.9 54.3 21.6C53.9 24.4 53.3 27 52.7 29.8H56.9C57 28.5 57.1 27.2 57.3 26L58.6 19.4C59.1 18.9 59.8 18.4 60.6 18.4C61.3 18.4 61.9 18.8 61.9 19.6C61.9 19.8 61.9 20 61.9 20.2L60.8 26.6C60.7 27.1 60.7 27.5 60.7 28C60.7 29.5 61.6 29.9 62.9 29.9C63.5 29.9 64.1 29.9 64.7 29.8C64.7 29.6 64.6 29.4 64.6 29.2C64.6 28.4 64.7 27.7 64.8 27L65.8 21.4C65.9 20.5 66.1 19.7 66.1 18.8C66.1 16.8 64.6 15.7 62.7 15.7Z" fill="#313131"/>
<path d="M106.2 15.8C104.8 15.8 103.2 16.5 102.1 17.4V17.3C102.1 16.7 101.8 16.1 101.1 16.1H98.1001C98.0001 17.4 98.0001 17.6 97.3001 22.4C96.6001 27.1 96.2001 28.4 95.9001 29.8H100.4C100.5 28.4 100.7 27.1 100.9 25.7L101.8 19.6C102.4 18.9 103.2 18.3 104.2 18.3C105.1 18.3 105.7 18.7 105.7 19.6C105.7 19.8 105.7 20 105.7 20.2L104.7 25.7C104.6 26.4 104.4 27.2 104.4 27.8C104.4 29.3 105.2 29.8 106.6 29.8C107.2 29.8 107.9 29.8 108.4 29.7C108.4 29.5 108.3 29.3 108.3 29.2C108.3 28.4 108.3 27.7 108.5 26.9L109.7 20.2C109.8 19.8 109.8 19.3 109.8 18.9C109.9 16.7 108.2 15.8 106.2 15.8Z" fill="#313131"/>
<path d="M91.6001 15.8C90.2001 15.8 88.6001 16.5 87.5001 17.4C87.5001 17.4 87.5001 17.4 87.5001 17.3C87.5001 16.7 87.3001 16.1 86.6001 16.1H83.6001C83.5001 17.4 83.5001 18.4 82.8001 22.3C82.0001 27.4 81.7001 28.6 81.4001 29.8H85.9001C86.0001 28.4 86.2001 27.1 86.4001 25.7L87.3001 19.6C87.9001 18.9 88.7001 18.3 89.7001 18.3C90.6001 18.3 91.2001 18.7 91.2001 19.6C91.2001 19.8 91.2001 20 91.1001 20.2L90.1001 25.7C90.0001 26.4 89.8001 27.2 89.8001 27.8C89.8001 29.3 90.6001 29.8 92.0001 29.8C92.6001 29.8 93.2001 29.8 93.8001 29.7C93.8001 29.5 93.7001 29.3 93.7001 29.2C93.7001 28.4 93.8001 27.7 93.9001 26.9L95.1001 20.2C95.2001 19.8 95.2001 19.3 95.2001 18.9C95.3001 16.7 93.6001 15.8 91.6001 15.8Z" fill="#313131"/>
</svg>
