<svg width="135" height="72" viewBox="0 0 135 72" fill="none" xmlns="http://www.w3.org/2000/svg">
<path fill-rule="evenodd" clip-rule="evenodd" d="M132.975 36.648C132.921 33.903 132.066 30.186 129.42 27.36C127.098 24.876 123.858 22.617 118.8 22.68C114.3 22.734 111.96 24.309 109.989 25.704C108.018 27.099 104.724 30.843 104.517 37.089C104.517 37.089 104.544 37.179 104.553 37.35C104.724 41.427 106.407 44.577 107.82 46.08C109.656 48.033 112.374 51.156 118.8 51.21C126.927 51.282 130.815 44.82 131.229 44.091C131.985 42.741 133.038 39.969 132.975 36.648ZM118.962 44.307C117.234 44.307 111.861 43.389 111.735 37.08C111.609 30.699 115.974 29.592 118.737 29.421C118.737 29.421 125.523 29.187 125.739 36.864C125.937 43.137 120.168 44.307 118.962 44.307Z" fill="#D7D7D7"/>
<path fill-rule="evenodd" clip-rule="evenodd" d="M84.375 11.4749C83.934 11.5649 84.159 50.6609 84.159 50.6609H91.161V11.4749C91.161 11.4749 84.816 11.3759 84.375 11.4749Z" fill="#D7D7D7"/>
<path fill-rule="evenodd" clip-rule="evenodd" d="M94.446 11.4749C94.005 11.5649 94.23 50.6609 94.23 50.6609H101.232V11.4749C101.232 11.4749 94.887 11.3759 94.446 11.4749Z" fill="#D7D7D7"/>
<path fill-rule="evenodd" clip-rule="evenodd" d="M80.658 36.2071C80.667 33.6781 78.876 22.5091 66.645 22.6351C54.324 22.7521 52.713 33.4981 52.632 36.4231C52.506 41.1751 55.692 50.9851 66.645 51.0931C78.813 51.2101 80.433 40.5901 80.433 40.5901H73.206C72.594 43.3081 69.912 44.9821 66.861 44.9731C60.318 44.9371 60.075 38.1871 60.075 38.1871H80.433C80.433 38.1781 80.64 37.2151 80.658 36.2071ZM60.507 33.3631C60.705 33.1831 61.092 28.4131 66.861 28.3231C72.63 28.2331 73.206 33.3631 73.206 33.3631C73.206 33.3631 60.318 33.5431 60.507 33.3631Z" fill="#D7D7D7"/>
<path fill-rule="evenodd" clip-rule="evenodd" d="M16.506 44.3069C11.016 44.3159 9.38705 39.7259 9.36005 36.8999C9.33305 34.0739 10.863 29.5289 16.29 29.4209C21.717 29.3129 22.86 34.4519 22.86 34.4519H30.087C30.087 34.4519 28.224 22.5899 16.074 22.8509C3.92405 23.1119 2.14205 33.6599 2.16005 36.7199C2.20505 42.7679 6.67805 51.1739 16.506 51.3179C28.377 51.4889 30.078 39.2759 30.078 39.2759H22.86C22.86 39.2759 21.744 44.3069 16.506 44.3069Z" fill="#D7D7D7"/>
<path fill-rule="evenodd" clip-rule="evenodd" d="M33.5881 23.0759V50.2199H40.5901V29.2049H50.6611V23.0759H33.5881Z" fill="#D7D7D7"/>
</svg>
