<svg width="216" height="50" viewBox="0 0 216 50" fill="none" xmlns="http://www.w3.org/2000/svg">
<path fill-rule="evenodd" clip-rule="evenodd" d="M55.4054 32.4467H60.4013C62.3505 32.4467 63.0917 33.1197 63.0917 34.7682C63.0917 36.3555 62.3501 37.0278 60.4013 37.0278H55.4054V32.4467ZM47.6658 49.1202H55.4057V42.3402H63.6961C69.185 42.3402 71.1613 39.1048 71.1613 34.9217C71.1613 30.0659 69.1292 27.3182 63.6402 27.3182H47.6658V49.1202ZM73.7138 27.3182H94.5451V32.6301H81.4538V35.5617H93.6134V40.8759H81.4538V43.8071H94.5451V49.1202H73.7138V27.3182ZM105.525 32.4467H110.52C112.469 32.4467 113.211 33.1197 113.211 34.7682C113.211 36.3555 112.469 37.0278 110.52 37.0278H105.525V32.4467ZM97.7848 49.1202H105.525V42.3402H113.814C119.304 42.3402 121.281 39.1048 121.281 34.9217C121.281 30.0659 119.249 27.3182 113.759 27.3182H97.7848V49.1202ZM128.772 39.8679C124.985 39.2256 123.422 36.7829 123.422 33.7301C123.422 28.0801 128.39 26.5547 134.756 26.5547C143.483 26.5547 147.08 29.0882 147.355 33.6997H138.351C138.351 32.814 137.885 32.2632 137.172 31.9582C136.486 31.6232 135.608 31.5013 134.756 31.5013C132.451 31.5013 131.656 32.1417 131.656 33.0586C131.656 33.6682 131.902 34.0667 132.67 34.1882L141.92 35.7144C145.818 36.3556 148.233 38.3709 148.233 42.0648C148.233 47.3798 144.336 49.8837 135.634 49.8837C129.679 49.8837 123.173 48.9679 123.146 42.5552H132.478C132.504 43.2871 132.753 43.7756 133.302 44.1117C133.877 44.4175 134.729 44.5706 135.936 44.5706C138.351 44.5706 139.011 43.8371 139.011 42.7987C139.011 42.1575 138.653 41.5167 137.612 41.3344L128.772 39.8679ZM150.757 27.3182H158.497V49.1202H150.757V27.3182ZM187.182 40.6313C186.687 43.5017 185.808 45.8225 183.886 47.4098C181.994 48.9979 179.028 49.8837 174.308 49.8837C169.615 49.8837 160.914 49.5164 160.914 38.2198C160.914 26.9209 169.615 26.5543 174.308 26.5543C178.973 26.5543 186.165 27.2255 187.182 35.8682H178.453C178.234 34.3094 177.299 32.0501 174.308 32.0501C171.15 32.0501 169.147 33.7905 169.147 38.2194C169.147 42.6471 171.096 44.3864 173.923 44.3864C176.367 44.3864 177.821 43.2567 178.453 40.6309H187.182V40.6313ZM197.309 38.2201C197.309 33.7909 199.313 32.0509 202.47 32.0509C205.626 32.0509 207.63 33.7913 207.63 38.2201C207.63 42.6478 205.626 44.3871 202.47 44.3871C199.313 44.3867 197.309 42.6475 197.309 38.2201ZM189.074 38.2201C189.074 49.5164 197.775 49.8841 202.47 49.8841C207.163 49.8841 215.864 49.5168 215.864 38.2201C215.864 26.9212 207.163 26.5547 202.47 26.5547C197.775 26.5547 189.074 26.9209 189.074 38.2201ZM35.9703 27.5343C36.4701 17.0742 27.4553 5.29476 15.1656 3.83874L15.1866 3.6958C27.3024 3.6958 36.5904 14.9193 36.5904 23.7736C36.5788 25.6168 36.4333 26.7588 36.1739 27.5879L35.9703 27.5343ZM35.2362 28.8639C34.4301 29.8494 33.4163 30.8417 32.2285 31.7838C30.0435 19.2086 20.8086 8.21243 14.2797 5.00288L14.1398 5.10042C20.7059 10.4927 28.5374 20.9655 31.5829 32.2771C30.0295 33.419 28.3514 34.3806 26.581 35.1434C20.385 28.073 14.6085 14.4372 12.747 5.78435L12.5576 5.84138C12.5996 14.2406 18.5591 28.4992 25.8267 35.4567C24.1598 36.1167 22.427 36.5958 20.6579 36.8857C13.6914 34.1241 8.73264 25.2791 8.73264 16.2185C8.73264 10.3036 10.5349 6.64461 10.8836 5.89578L10.7351 5.83688C10.3133 6.47541 7.6731 10.1325 7.6731 16.5182C7.6731 26.7599 12.7207 34.5881 19.4222 37.0534C17.0257 37.3171 14.6028 37.2033 12.2416 36.7161L12.1917 36.8722C12.9086 37.1363 15.3407 38.1579 19.051 38.1579C27.443 38.1579 33.116 32.9404 35.3997 28.9745L35.2362 28.8639Z" fill="#D7D7D7"/>
<path fill-rule="evenodd" clip-rule="evenodd" d="M18.2119 0C11.8502 0 4.39062 4.59429 4.39062 8.79391C4.39062 10.4184 5.87571 11.7907 8.94936 11.7907C16.0846 11.7907 22.7137 6.88543 22.7137 3.07111C22.7137 1.06397 20.7873 0 18.2119 0ZM20.7517 2.95256C20.7517 6.16774 14.5815 10.098 9.42364 10.098C7.14483 10.098 5.91358 9.20059 5.91358 7.7198C5.91358 4.45848 12.1539 0.595014 16.9919 0.595014C20.1462 0.595014 20.7517 2.2011 20.7517 2.95256Z" fill="#D7D7D7"/>
<path fill-rule="evenodd" clip-rule="evenodd" d="M1.85613 10.7384C1.67729 11.0479 0.961182 12.4511 0.961182 13.8887C0.961182 16.555 3.65353 19.0303 8.60556 19.0303C18.1321 19.0303 29.1384 12.0136 29.1384 5.50035C29.1384 2.57667 26.3726 0.987093 24.4522 0.658447L24.4162 0.772497C25.0135 0.961581 27.2015 1.97941 27.2015 4.58381C27.2015 9.77349 17.4838 16.8446 7.80396 16.8446C4.09819 16.8446 1.76352 15.0142 1.76352 12.3479C1.76352 11.5045 1.93899 10.9489 1.98548 10.7879L1.85613 10.7384Z" fill="#D7D7D7"/>
<path fill-rule="evenodd" clip-rule="evenodd" d="M33.0659 5.9873C33.3272 6.18577 34.8962 7.49435 34.8962 9.96895C34.8962 18.4064 21.6846 26.7033 10.0045 26.7033C3.03912 26.7033 -0.136131 23.2619 0.00446666 20.2061H0.129317C0.402264 21.7931 2.66382 24.6327 8.76012 24.6327C20.4548 24.6327 33.5124 16.0478 33.5124 8.52606C33.5124 7.23586 33.1622 6.43188 32.9642 6.07434L33.0659 5.9873Z" fill="#D7D7D7"/>
<path fill-rule="evenodd" clip-rule="evenodd" d="M37.482 13.8643C37.5367 14.044 37.8213 14.8517 37.8213 16.1168C37.8213 25.5027 24.451 33.538 12.8227 33.538C6.83775 33.538 3.71236 30.629 3.05249 29.4476L3.15897 29.3688C4.81502 30.818 8.07688 31.9192 11.8835 31.9192C22.1535 31.9192 37.4779 24.1007 37.341 13.8984L37.482 13.8643Z" fill="#D7D7D7"/>
</svg>
