<svg width="215" height="37" viewBox="0 0 215 37" fill="none" xmlns="http://www.w3.org/2000/svg">
<path d="M9.67687 24.3082C9.73054 25.6855 9.81997 29.6027 15.4364 29.6027C16.2414 29.6027 20.4984 29.6027 20.4984 25.7213C20.4984 24.1114 19.8366 23.0382 17.565 22.4122L9.21182 20.2479C6.85075 19.6397 0.751334 18.0299 0.751334 10.8931C0.751334 5.36601 4.90108 0.2146 15.0966 0.2146C28.4223 0.2146 28.9768 7.44089 29.0305 11.0719H19.4431C19.4431 10.0345 19.4968 6.34979 14.9535 6.34979C12.2168 6.34979 10.4639 7.90595 10.4639 9.94505C10.4639 12.4492 12.5388 13.0574 13.9161 13.433L20.2838 15.0786C24.827 16.2591 30.1931 17.6722 30.1931 24.8985C30.1931 32.5004 23.6823 35.8989 15.1324 35.8989C11.5908 35.8989 5.86697 35.3265 2.75466 31.8386C0.268389 29.1198 0.232616 25.757 0.178955 24.3082H9.67687Z" fill="#D7D7D7"/>
<path d="M35.7915 1.05542H44.4666V21.9473L52.6051 11.4477H62.425L54.3402 21.4643L63.6056 35.1657H52.9271L44.4666 21.983V35.1657H35.7915V1.05542Z" fill="#D7D7D7"/>
<path d="M78.5233 10.6426C86.2147 10.6426 92.2247 14.524 92.2247 22.9308C92.2247 26.383 91.2409 29.8709 88.7725 32.3214C86.7871 34.2532 83.8536 35.7199 78.9884 35.7199C73.7475 35.7199 70.349 34.45 68.0237 32.232C65.2871 29.6384 64.6252 26.0968 64.6252 23.217C64.6431 15.9371 69.1327 10.6426 78.5233 10.6426ZM74.9817 28.8872C76.0192 30.6759 77.629 30.7832 78.4339 30.7832C82.2975 30.7832 83.0666 26.5798 83.0666 23.2707C83.0666 19.1567 82.0828 15.7224 78.5233 15.7224C74.6061 15.7224 73.8549 19.7291 73.8549 23.2707C73.8549 24.8269 73.998 27.1343 74.9817 28.8872Z" fill="#D7D7D7"/>
<path d="M106.481 1.05542H97.6086V35.1478H106.481V1.05542Z" fill="#D7D7D7"/>
<path d="M129.483 11.5549V17.225H123.777V25.4351C123.831 28.3685 123.831 29.6921 127.229 29.6921C127.927 29.6921 128.356 29.6921 129.447 29.549V35.1119C128.267 35.3086 126.711 35.5411 123.688 35.5411C116.605 35.5411 115.192 33.1801 115.192 28.601V17.225H110.702V11.5549H115.335V7.87018L123.885 4.47168V11.5549H129.483Z" fill="#D7D7D7"/>
<path d="M141.002 25.0954C141.002 26.3653 141.002 30.8549 145.528 30.8549C147.889 30.8549 149.356 29.6207 149.588 27.4028H157.852C157.19 33.3591 151.609 35.6665 145.474 35.6665C137.21 35.6665 132.774 31.5167 132.774 23.6644C132.774 15.7226 136.656 10.5891 145.385 10.5891C152.003 10.5891 155.061 13.29 156.671 16.6349C157.709 18.674 157.995 20.9277 157.995 25.0954H141.002V25.0954ZM149.642 20.2838C149.552 18.9065 149.266 15.3291 145.385 15.3291C141.503 15.3291 141.181 19.1569 141.092 20.2838H149.642Z" fill="#D7D7D7"/>
<path d="M178.207 19.7651C178.207 17.5471 177.348 15.7047 175.041 15.7047C171.786 15.7047 171.034 19.0138 171.034 23.1636C171.034 29.2987 172.734 30.7297 174.952 30.7297C177.974 30.7297 178.171 27.7068 178.171 25.9181H187.15C187.204 31.9102 182.375 35.738 175.202 35.738C167.636 35.738 161.876 31.7135 161.876 23.1814C161.876 13.8266 168.441 10.6606 175.095 10.6606C177.652 10.6606 181.945 11.0899 184.682 14.0591C186.721 16.2235 186.9 18.4057 186.989 19.7829H178.207V19.7651Z" fill="#D7D7D7"/>
<path d="M189.458 1.05542H198.419V14.0413C199.367 13.0933 201.531 10.929 205.842 10.929C208.15 10.929 210.511 11.5371 212.46 13.3437C214.821 15.4722 214.821 18.0658 214.821 21.3749V35.1657H205.985V22.4123C205.985 20.4269 205.985 16.5454 202.301 16.5454C199.474 16.5454 198.813 18.9065 198.562 19.8545C198.33 20.9456 198.33 22.4481 198.33 24.4335V35.1478H189.458V1.05542Z" fill="#D7D7D7"/>
<path d="M9.67687 24.3082C9.73054 25.6855 9.81997 29.6027 15.4364 29.6027C16.2414 29.6027 20.4984 29.6027 20.4984 25.7213C20.4984 24.1114 19.8366 23.0382 17.565 22.4122L9.21182 20.2479C6.85075 19.6397 0.751334 18.0299 0.751334 10.8931C0.751334 5.36601 4.90108 0.2146 15.0966 0.2146C28.4223 0.2146 28.9768 7.44089 29.0305 11.0719H19.4431C19.4431 10.0345 19.4968 6.34979 14.9535 6.34979C12.2168 6.34979 10.4639 7.90595 10.4639 9.94505C10.4639 12.4492 12.5388 13.0574 13.9161 13.433L20.2838 15.0786C24.827 16.2591 30.1931 17.6722 30.1931 24.8985C30.1931 32.5004 23.6823 35.8989 15.1324 35.8989C11.5908 35.8989 5.86697 35.3265 2.75466 31.8386C0.268389 29.1198 0.232616 25.757 0.178955 24.3082H9.67687Z" fill="#D7D7D7"/>
<path d="M35.7915 1.05542H44.4666V21.9473L52.6051 11.4477H62.425L54.3402 21.4643L63.6056 35.1657H52.9271L44.4666 21.983V35.1657H35.7915V1.05542Z" fill="#D7D7D7"/>
<path d="M78.5233 10.6426C86.2147 10.6426 92.2247 14.524 92.2247 22.9308C92.2247 26.383 91.2409 29.8709 88.7725 32.3214C86.7871 34.2532 83.8536 35.7199 78.9884 35.7199C73.7475 35.7199 70.349 34.45 68.0237 32.232C65.2871 29.6384 64.6252 26.0968 64.6252 23.217C64.6431 15.9371 69.1327 10.6426 78.5233 10.6426ZM74.9817 28.8872C76.0192 30.6759 77.629 30.7832 78.4339 30.7832C82.2975 30.7832 83.0666 26.5798 83.0666 23.2707C83.0666 19.1567 82.0828 15.7224 78.5233 15.7224C74.6061 15.7224 73.8549 19.7291 73.8549 23.2707C73.8549 24.8269 73.998 27.1343 74.9817 28.8872Z" fill="#D7D7D7"/>
<path d="M106.481 1.05542H97.6086V35.1478H106.481V1.05542Z" fill="#D7D7D7"/>
<path d="M129.483 11.5549V17.225H123.777V25.4351C123.831 28.3685 123.831 29.6921 127.229 29.6921C127.927 29.6921 128.356 29.6921 129.447 29.549V35.1119C128.267 35.3086 126.711 35.5411 123.688 35.5411C116.605 35.5411 115.192 33.1801 115.192 28.601V17.225H110.702V11.5549H115.335V7.87018L123.885 4.47168V11.5549H129.483Z" fill="#D7D7D7"/>
<path d="M141.002 25.0954C141.002 26.3653 141.002 30.8549 145.528 30.8549C147.889 30.8549 149.356 29.6207 149.588 27.4028H157.852C157.19 33.3591 151.609 35.6665 145.474 35.6665C137.21 35.6665 132.774 31.5167 132.774 23.6644C132.774 15.7226 136.656 10.5891 145.385 10.5891C152.003 10.5891 155.061 13.29 156.671 16.6349C157.709 18.674 157.995 20.9277 157.995 25.0954H141.002V25.0954ZM149.642 20.2838C149.552 18.9065 149.266 15.3291 145.385 15.3291C141.503 15.3291 141.181 19.1569 141.092 20.2838H149.642Z" fill="#D7D7D7"/>
<path d="M178.207 19.7651C178.207 17.5471 177.348 15.7047 175.041 15.7047C171.786 15.7047 171.034 19.0138 171.034 23.1636C171.034 29.2987 172.734 30.7297 174.952 30.7297C177.974 30.7297 178.171 27.7068 178.171 25.9181H187.15C187.204 31.9102 182.375 35.738 175.202 35.738C167.636 35.738 161.876 31.7135 161.876 23.1814C161.876 13.8266 168.441 10.6606 175.095 10.6606C177.652 10.6606 181.945 11.0899 184.682 14.0591C186.721 16.2235 186.9 18.4057 186.989 19.7829H178.207V19.7651Z" fill="#D7D7D7"/>
<path d="M189.458 1.05542H198.419V14.0413C199.367 13.0933 201.531 10.929 205.842 10.929C208.15 10.929 210.511 11.5371 212.46 13.3437C214.821 15.4722 214.821 18.0658 214.821 21.3749V35.1657H205.985V22.4123C205.985 20.4269 205.985 16.5454 202.301 16.5454C199.474 16.5454 198.813 18.9065 198.562 19.8545C198.33 20.9456 198.33 22.4481 198.33 24.4335V35.1478H189.458V1.05542Z" fill="#D7D7D7"/>
<path d="M9.67687 24.3082C9.73054 25.6855 9.81997 29.6027 15.4364 29.6027C16.2414 29.6027 20.4984 29.6027 20.4984 25.7213C20.4984 24.1114 19.8366 23.0382 17.565 22.4122L9.21182 20.2479C6.85075 19.6397 0.751334 18.0299 0.751334 10.8931C0.751334 5.36601 4.90108 0.2146 15.0966 0.2146C28.4223 0.2146 28.9768 7.44089 29.0305 11.0719H19.4431C19.4431 10.0345 19.4968 6.34979 14.9535 6.34979C12.2168 6.34979 10.4639 7.90595 10.4639 9.94505C10.4639 12.4492 12.5388 13.0574 13.9161 13.433L20.2838 15.0786C24.827 16.2591 30.1931 17.6722 30.1931 24.8985C30.1931 32.5004 23.6823 35.8989 15.1324 35.8989C11.5908 35.8989 5.86697 35.3265 2.75466 31.8386C0.268389 29.1198 0.232616 25.757 0.178955 24.3082H9.67687Z" fill="#D7D7D7"/>
<path d="M35.7915 1.05542H44.4666V21.9473L52.6051 11.4477H62.425L54.3402 21.4643L63.6056 35.1657H52.9271L44.4666 21.983V35.1657H35.7915V1.05542Z" fill="#D7D7D7"/>
<path d="M78.5233 10.6426C86.2147 10.6426 92.2247 14.524 92.2247 22.9308C92.2247 26.383 91.2409 29.8709 88.7725 32.3214C86.7871 34.2532 83.8536 35.7199 78.9884 35.7199C73.7475 35.7199 70.349 34.45 68.0237 32.232C65.2871 29.6384 64.6252 26.0968 64.6252 23.217C64.6431 15.9371 69.1327 10.6426 78.5233 10.6426ZM74.9817 28.8872C76.0192 30.6759 77.629 30.7832 78.4339 30.7832C82.2975 30.7832 83.0666 26.5798 83.0666 23.2707C83.0666 19.1567 82.0828 15.7224 78.5233 15.7224C74.6061 15.7224 73.8549 19.7291 73.8549 23.2707C73.8549 24.8269 73.998 27.1343 74.9817 28.8872Z" fill="#D7D7D7"/>
<path d="M106.481 1.05542H97.6086V35.1478H106.481V1.05542Z" fill="#D7D7D7"/>
<path d="M129.483 11.5549V17.225H123.777V25.4351C123.831 28.3685 123.831 29.6921 127.229 29.6921C127.927 29.6921 128.356 29.6921 129.447 29.549V35.1119C128.267 35.3086 126.711 35.5411 123.688 35.5411C116.605 35.5411 115.192 33.1801 115.192 28.601V17.225H110.702V11.5549H115.335V7.87018L123.885 4.47168V11.5549H129.483Z" fill="#D7D7D7"/>
<path d="M141.002 25.0954C141.002 26.3653 141.002 30.8549 145.528 30.8549C147.889 30.8549 149.356 29.6207 149.588 27.4028H157.852C157.19 33.3591 151.609 35.6665 145.474 35.6665C137.21 35.6665 132.774 31.5167 132.774 23.6644C132.774 15.7226 136.656 10.5891 145.385 10.5891C152.003 10.5891 155.061 13.29 156.671 16.6349C157.709 18.674 157.995 20.9277 157.995 25.0954H141.002V25.0954ZM149.642 20.2838C149.552 18.9065 149.266 15.3291 145.385 15.3291C141.503 15.3291 141.181 19.1569 141.092 20.2838H149.642Z" fill="#D7D7D7"/>
<path d="M178.207 19.7651C178.207 17.5471 177.348 15.7047 175.041 15.7047C171.786 15.7047 171.034 19.0138 171.034 23.1636C171.034 29.2987 172.734 30.7297 174.952 30.7297C177.974 30.7297 178.171 27.7068 178.171 25.9181H187.15C187.204 31.9102 182.375 35.738 175.202 35.738C167.636 35.738 161.876 31.7135 161.876 23.1814C161.876 13.8266 168.441 10.6606 175.095 10.6606C177.652 10.6606 181.945 11.0899 184.682 14.0591C186.721 16.2235 186.9 18.4057 186.989 19.7829H178.207V19.7651Z" fill="#D7D7D7"/>
<path d="M189.458 1.05542H198.419V14.0413C199.367 13.0933 201.531 10.929 205.842 10.929C208.15 10.929 210.511 11.5371 212.46 13.3437C214.821 15.4722 214.821 18.0658 214.821 21.3749V35.1657H205.985V22.4123C205.985 20.4269 205.985 16.5454 202.301 16.5454C199.474 16.5454 198.813 18.9065 198.562 19.8545C198.33 20.9456 198.33 22.4481 198.33 24.4335V35.1478H189.458V1.05542Z" fill="#D7D7D7"/>
</svg>
