<svg width="104" height="35" viewBox="0 0 104 35" fill="none" xmlns="http://www.w3.org/2000/svg">
<g clip-path="url(#clip0)">
<path d="M42.017 0.533977H29.0747C28.8579 0.539894 28.6499 0.620505 28.4855 0.762244C28.3211 0.903984 28.2103 1.0982 28.172 1.31221C28.0502 1.89206 27.8829 2.68047 27.7561 3.30102C27.7036 3.52713 27.7298 3.76444 27.8304 3.97355C27.931 4.18265 28.0998 4.35097 28.3089 4.45056C28.4835 4.498 28.6409 4.59482 28.7622 4.72948C28.8835 4.86414 28.9637 5.03096 28.9931 5.21003C29.0225 5.38911 28.9999 5.57289 28.9281 5.73945C28.8562 5.90602 28.7381 6.04834 28.5878 6.14944L17.456 16.0986L19.3679 6.73947C19.4845 6.20365 19.7429 5.70924 20.116 5.30824C20.489 4.90724 20.9629 4.61448 21.4878 4.46073C21.6495 4.40491 21.7937 4.30735 21.9059 4.17788C22.018 4.0484 22.0942 3.89158 22.1268 3.72319L22.5376 1.73438C22.574 1.59262 22.5784 1.44448 22.5503 1.30082C22.5223 1.15715 22.4626 1.02159 22.3755 0.904068C22.2885 0.786544 22.1764 0.690031 22.0473 0.621595C21.9183 0.553159 21.7756 0.514533 21.6298 0.508545H7.52613C7.30808 0.514485 7.09873 0.595636 6.93337 0.738321C6.76801 0.881005 6.65675 1.0765 6.61834 1.29186L6.18727 3.42818C6.13774 3.65908 6.16987 3.90007 6.27813 4.10982C6.3864 4.31956 6.56405 4.48499 6.78063 4.57772C7.69856 4.93886 8.8092 5.77304 8.36799 8.0823L4.94984 24.8677C4.05726 29.4455 2.6119 30.3865 1.23247 30.5645C1.03252 30.5914 0.846246 30.6813 0.700437 30.8211C0.554629 30.961 0.456806 31.1436 0.421042 31.3427L0.000113001 33.3163C-0.0336849 33.457 -0.0360303 33.6035 -0.00675511 33.7453C0.02252 33.887 0.0826911 34.0205 0.169447 34.1362C0.256204 34.2519 0.367398 34.3469 0.495065 34.4145C0.622731 34.482 0.763709 34.5204 0.907901 34.5269H15.752C15.9711 34.5216 16.1815 34.4401 16.3471 34.2962C16.5128 34.1524 16.6233 33.9552 16.6598 33.7385L17.1162 31.4699C17.1637 31.2468 17.135 31.0141 17.0347 30.8093C16.9345 30.6045 16.7685 30.4395 16.5634 30.3407C15.8179 30.0101 14.7631 29.3081 15.0319 27.9755L16.7866 19.3793C22.7912 31.1647 24.7792 34.5574 32.0009 34.5574H38.472C38.6924 34.5522 38.9041 34.4701 39.0707 34.3253C39.2373 34.1804 39.3484 33.9819 39.3849 33.7639L39.7653 31.7954C39.7961 31.659 39.7977 31.5175 39.77 31.3804C39.7422 31.2433 39.6857 31.1137 39.6041 31.0002C39.5226 30.8867 39.4179 30.7918 39.2971 30.722C39.1762 30.6521 39.0419 30.6089 38.9031 30.595C37.1078 30.4933 36.3674 30.005 34.8815 27.9246L26.5085 15.7934L37.3715 6.10366C38.6274 5.11946 40.1404 4.52062 41.7279 4.37935C41.9276 4.35167 42.1134 4.26157 42.2591 4.12186C42.4048 3.98215 42.5028 3.79993 42.5393 3.60112L42.9248 1.74964C42.9585 1.60863 42.9608 1.46189 42.9315 1.31988C42.9023 1.17787 42.8422 1.04406 42.7555 0.927994C42.6688 0.811926 42.5577 0.716443 42.4301 0.648341C42.3024 0.580239 42.1614 0.541192 42.017 0.533977" fill="#D7D7D7"/>
<path d="M45.0242 1.31217L44.5932 3.39762C44.5354 3.63234 44.5629 3.88003 44.6707 4.09627C44.7785 4.31251 44.9596 4.48318 45.1814 4.57768C46.0639 4.93373 47.3013 5.84421 46.7637 8.1026L41.5858 33.3518C41.5478 33.4931 41.5418 33.641 41.5681 33.7849C41.5945 33.9288 41.6525 34.0649 41.7381 34.1834C41.8236 34.3019 41.9345 34.3997 42.0626 34.4697C42.1907 34.5396 42.3327 34.58 42.4784 34.5879H53.9753C54.1954 34.5834 54.4069 34.5015 54.5729 34.3564C54.7388 34.2114 54.8486 34.0124 54.8831 33.7944L55.3243 31.5004C55.3683 31.2869 55.3428 31.0649 55.2515 30.8671C55.1602 30.6693 55.0079 30.5062 54.8172 30.4017C54.2529 30.1479 53.7958 29.703 53.5259 29.1449C53.2561 28.5869 53.1907 27.9513 53.3414 27.3498C53.382 27.1107 54.518 21.5614 54.518 21.5614H64.8333C65.0523 21.5562 65.2628 21.4747 65.4284 21.3308C65.5941 21.1869 65.7046 20.9897 65.7411 20.773L66.6235 16.4241C66.6573 16.2833 66.6596 16.1368 66.6304 15.9951C66.6011 15.8533 66.5409 15.7198 66.4542 15.6041C66.3674 15.4884 66.2562 15.3934 66.1285 15.3259C66.0009 15.2583 65.8599 15.22 65.7157 15.2135H55.9278L57.7485 6.20026H64.7623C66.9937 6.20026 67.6733 7.45154 67.5414 9.58277C67.5318 9.83828 67.6235 10.0872 67.7965 10.275C67.9695 10.4628 68.2097 10.5742 68.4644 10.5848H70.7161C70.9329 10.5789 71.1409 10.4983 71.3053 10.3565C71.4698 10.2148 71.5805 10.0206 71.6189 9.80657L73.3127 1.7496C73.3474 1.60852 73.3504 1.46148 73.3215 1.31909C73.2927 1.1767 73.2326 1.04251 73.1458 0.926209C73.0589 0.809907 72.9474 0.714392 72.8193 0.646556C72.6912 0.57872 72.5497 0.540254 72.4049 0.533936H45.932C45.7147 0.539643 45.5059 0.620068 45.3407 0.761743C45.1754 0.903417 45.0637 1.09774 45.0242 1.31217" fill="#D7D7D7"/>
<path d="M102.306 10.4781L103.965 2.41607C104.017 2.17327 103.978 1.91975 103.857 1.70331C103.736 1.48688 103.539 1.32247 103.305 1.2411C100.578 0.418409 97.7451 0.000283013 94.8969 0C76.7868 0 72.1921 10.9766 71.4466 18.4232C70.6149 26.7904 76.0109 35 89.298 35C94.8766 35 98.5484 33.9827 99.8517 33.5097C100.015 33.4512 100.16 33.3494 100.271 33.2151C100.382 33.0808 100.454 32.9189 100.481 32.7467L101.231 28.5249C101.262 28.3866 101.257 28.2425 101.216 28.1067C101.176 27.971 101.101 27.848 100.999 27.7498C100.897 27.6516 100.771 27.5815 100.634 27.5462C100.497 27.5109 100.353 27.5116 100.217 27.5483C97.8696 28.3278 95.4119 28.7212 92.9393 28.7131C86.5848 28.7131 81.9952 24.6185 82.5784 17.5687C83.1413 10.7477 87.4318 5.54934 93.3298 5.54934C96.8798 5.54934 98.452 7.55341 98.3303 10.2238C98.3235 10.3524 98.3423 10.4811 98.3858 10.6022C98.4293 10.7234 98.4964 10.8347 98.5834 10.9294C98.6703 11.0242 98.7752 11.1006 98.892 11.1541C99.0088 11.2076 99.1351 11.2372 99.2634 11.2411H101.409C101.626 11.2363 101.836 11.1562 102.001 11.0144C102.166 10.8726 102.278 10.6777 102.316 10.4629" fill="#D7D7D7"/>
</g>
<defs>
<clipPath id="clip0">
<rect width="104" height="35" fill="white"/>
</clipPath>
</defs>
</svg>
