<svg width="215" height="37" viewBox="0 0 215 37" fill="none" xmlns="http://www.w3.org/2000/svg">
<g clip-path="url(#clip0)">
<path d="M47.9381 14.4234H43.5791V10.8965H56.3225V14.4234H51.9657V25.4214H47.9381V14.4234Z" fill="#D7D7D7"/>
<path d="M58.4375 10.8965H70.121V14.3197H62.4222V16.5206H69.3949V19.6957H62.4222V21.9982H70.2247V25.4214H58.4375V10.8965Z" fill="#D7D7D7"/>
<path d="M76.8547 18.0338L72.0808 10.8965H76.7081L79.2812 14.9849L81.8767 10.8965H86.4004L81.6264 17.9954L86.6079 25.4214H81.9805L79.1977 21.042L76.3969 25.4214H71.8733L76.8547 18.0338Z" fill="#D7D7D7"/>
<path d="M88.5112 10.8965H92.5365V16.3334H97.7051V10.8965H101.73V25.4214H97.7051V19.901H92.5365V25.4214H88.5112V10.8965Z" fill="#D7D7D7"/>
<path d="M115.685 18.1601C115.685 16.0629 114.172 14.2363 111.953 14.2363C109.734 14.2363 108.279 16.011 108.279 18.1601C108.279 20.2551 109.795 22.0794 111.993 22.0794C114.192 22.0794 115.685 20.2956 115.685 18.1601ZM104.15 18.1601C104.15 13.9815 107.51 10.5989 111.993 10.5989C116.476 10.5989 119.796 13.9431 119.796 18.1556C119.796 22.3252 116.434 25.7101 111.953 25.7101C107.472 25.7101 104.15 22.3658 104.15 18.1556" fill="#D7D7D7"/>
<path d="M122.233 10.8965H126.261V16.3334H131.427V10.8965H135.455V25.4214H131.427V19.901H126.261V25.4214H122.233V10.8965Z" fill="#D7D7D7"/>
<path d="M138.585 10.8965H142.572V19.0711L148.196 10.8965H151.951V25.4214H147.966V17.2445L142.34 25.4214H138.585V10.8965Z" fill="#D7D7D7"/>
<path d="M155.083 10.8965H159.108V16.789L164.11 10.8965H168.884L163.384 17.1408L169.069 25.4214H164.234L160.583 20.0272L159.108 21.6644V25.4214H155.083V10.8965Z" fill="#D7D7D7"/>
<path d="M180.631 18.1601C180.631 16.0629 179.12 14.2363 176.898 14.2363C174.677 14.2363 173.229 16.011 173.229 18.1601C173.229 20.2551 174.743 22.0794 176.944 22.0794C179.145 22.0794 180.631 20.2956 180.631 18.1601ZM169.096 18.1601C169.1 13.9815 172.463 10.5989 176.944 10.5989C181.424 10.5989 184.746 13.9431 184.746 18.1556C184.746 22.3252 181.384 25.7101 176.903 25.7101C172.422 25.7101 169.1 22.3658 169.1 18.1556" fill="#D7D7D7"/>
<path d="M208.857 22.0388C210.183 22.0388 210.972 21.4367 210.972 20.2956C210.972 19.2786 210.183 18.6156 208.878 18.6156H206.76V22.0388H208.857ZM202.73 10.8965H206.756V15.4607H208.956C212.443 15.4607 214.996 17.1205 214.996 20.3971C214.996 23.5339 212.713 25.4214 209.164 25.4214H202.73V10.8965Z" fill="#D7D7D7"/>
<path d="M36.3178 29.0542L29.0542 36.3155L2.18741 36.3178L0 34.1304V7.26356L7.26356 0H34.1304L36.3178 2.18741V29.0542Z" fill="#D7D7D7"/>
<path d="M34.1304 0L25.9603 8.16784V20.0904L19.2695 10.8942H5.16635V13.7852H9.32243V24.808L0 34.1304V36.3178L2.18741 36.3155L12.457 26.046V13.7852H16.6131V25.4213H19.7047V16.2252L26.3978 25.4213H29.0542V9.45097L36.3155 2.18741V0H34.1304Z" fill="#313131"/>
<path d="M188.311 10.8965V17.2693C188.311 18.7734 188.158 20.9541 187.166 21.723C186.663 22.0948 186.065 22.3161 185.441 22.3612V25.7867H185.817C187.059 25.7577 188.276 25.4354 189.369 24.8463C191.798 23.3038 192.098 20.3723 192.098 17.0596V14.4324H195.573V25.4304H199.598V10.8965H188.311Z" fill="#D7D7D7"/>
</g>
<defs>
<clipPath id="clip0">
<rect width="215" height="36.3178" fill="white"/>
</clipPath>
</defs>
</svg>
