<svg width="70" height="70" viewBox="0 0 70 70" fill="none" xmlns="http://www.w3.org/2000/svg">
<path fill-rule="evenodd" clip-rule="evenodd" d="M64.0242 34.9997C67.7375 31.7887 69.1791 26.434 67.2011 21.6611C65.2237 16.8888 60.4196 14.1213 55.5242 14.4767C55.8797 9.58075 53.1111 4.7755 48.3378 2.79849C43.5656 0.821127 38.2106 2.26175 34.9999 5.97427C31.7892 2.26175 26.4353 0.820764 21.6616 2.79849C16.8883 4.7755 14.1211 9.58076 14.4762 14.4757C9.58062 14.1209 4.77538 16.8885 2.79873 21.6618C0.822085 26.4351 2.26199 31.7887 5.97487 34.9997C2.26199 38.2114 0.820996 43.5657 2.79873 48.339C4.77465 53.1104 9.57735 55.8781 14.4723 55.524C14.1178 60.4208 16.8854 65.2278 21.6613 67.2067C26.4356 69.1841 31.7914 67.7423 35.0039 64.0276C38.2145 67.738 43.5681 69.1771 48.3389 67.2016C53.1118 65.2235 55.8794 60.4194 55.5246 55.524C60.4199 55.8788 65.2248 53.1109 67.2029 48.3383C69.1791 43.565 67.7371 38.2114 64.0242 34.9997Z" fill="#D7D7D7"/>
<path fill-rule="evenodd" clip-rule="evenodd" d="M61.9587 34.9993C65.4667 32.0396 66.8391 27.0321 64.9928 22.5755C63.1473 18.1188 58.6347 15.5477 54.0611 15.9364C54.4496 11.3638 51.8792 6.85239 47.423 5.00648C42.966 3.16058 37.9586 4.53329 34.9996 8.04099C32.0405 4.5322 27.0331 3.15948 22.5764 5.00648C18.1199 6.85239 15.5487 11.3646 15.9373 15.9374C11.3644 15.5491 6.85264 18.1199 5.00564 22.5755C3.15973 27.0329 4.53245 32.0415 8.04124 34.9993C4.53317 37.9582 3.15973 42.9665 5.00564 47.4239C6.85264 51.8797 11.3652 54.4516 15.9373 54.0627C15.5487 58.6362 18.1199 63.1481 22.5764 64.9936C27.0334 66.8399 32.0417 65.4675 34.9996 61.9587C37.9586 65.4668 42.966 66.8399 47.4237 64.9936C51.8797 63.1466 54.4515 58.6348 54.0625 54.0627C58.6354 54.4498 63.1473 51.8787 64.9928 47.4232C66.8394 42.9665 65.4674 37.9582 61.9587 34.9993Z" fill="#D7D7D7"/>
<path fill-rule="evenodd" clip-rule="evenodd" d="M61.0623 34.9996C64.0227 31.9916 65.0785 27.3824 63.3661 23.2489C61.6539 19.1159 57.6494 16.6022 53.4285 16.5695C53.3958 12.3504 50.882 8.34555 46.7498 6.634C42.6159 4.92174 38.0079 5.9767 34.9999 8.93677C31.9933 5.9767 27.3842 4.92137 23.2504 6.634C19.1155 8.34663 16.6029 12.3504 16.5706 16.5702C12.3507 16.6029 8.34625 19.1159 6.6347 23.2489C4.92244 27.3831 5.97668 31.9923 8.93746 35.0003C5.97776 38.0083 4.92244 42.6175 6.63362 46.7497C8.34625 50.8829 12.3518 53.3966 16.5717 53.4299C16.6044 57.6494 19.1181 61.6547 23.2515 63.3669C27.3845 65.0785 31.9937 64.0238 35.0013 61.0631C38.0083 64.0228 42.6163 65.0785 46.7501 63.3669C50.8832 61.6547 53.3969 57.6494 53.4295 53.4292C57.6497 53.3959 61.6535 50.8829 63.3665 46.7497C65.0781 42.6167 64.0227 38.0068 61.0623 34.9996Z" fill="#D7D7D7"/>
<path fill-rule="evenodd" clip-rule="evenodd" d="M43.9614 30.1501C43.6778 30.3038 43.2584 30.1625 43.189 29.8553C43.1266 29.5796 43.2761 29.2692 43.3939 29.004L45.2216 24.8718C45.4863 24.2733 46.5111 24.2021 46.5946 24.7355C46.7962 26.0073 45.0942 29.5378 43.9614 30.1501ZM54.0189 29.8328C53.8472 30.2228 53.3166 30.4083 52.8612 30.2075C52.7258 30.1477 52.5663 29.9925 52.5656 29.8328C52.5565 28.4586 53.2607 27.2194 53.8599 26.0298C54.1834 25.3856 54.5927 24.445 55.4153 24.3608C56.0465 24.2961 56.2153 24.8492 56.0061 25.3257L54.0189 29.8328ZM56.9362 30.0253C56.5952 30.8456 57.1454 31.2799 57.9574 31.1488C57.961 31.7088 56.9097 32.1442 56.2429 32.2961C55.6594 32.4286 54.855 32.4929 54.5292 31.9779L54.1207 31.3311C53.0766 32.1148 51.1224 32.7678 50.0457 31.7622C48.9338 30.7235 49.4465 29.1929 49.7508 28.221C47.854 29.7307 46.262 32.5539 43.5071 32.0804C43.0271 31.9972 42.7354 31.6147 42.4282 31.2861C41.3163 33.1127 40.8975 35.99 38.3071 36.4508C37.4566 36.6027 36.5139 36.5075 35.9688 35.8705C35.902 35.4784 36.4667 35.7075 36.7176 35.5996C38.1843 34.9707 38.7818 32.71 39.3973 31.3014C38.3873 32.0048 36.7884 32.621 35.573 31.9212C35.205 31.7099 34.8808 31.3039 34.8162 31.3471C33.9159 31.9474 32.3431 32.4769 31.2471 31.9212C30.8676 31.7277 30.7027 31.3195 30.5553 30.9564C29.3634 31.671 27.7489 32.5655 26.3659 31.6598C25.706 31.2269 25.4573 30.3902 25.7536 29.6966L27.604 25.3598C27.9232 24.6117 26.5254 24.4799 26.2418 25.1103L23.2337 31.7844L20.2312 31.7829L20.7305 30.5652C18.8995 31.8105 17.1338 32.649 14.9473 31.8184C13.2064 31.1586 12.1989 29.3135 12.1321 27.5507C12.0061 24.2377 13.6182 21.2369 16.3995 19.2411C18.1579 17.9794 20.778 17.2433 22.7566 18.5481C23.4792 19.0249 23.9077 19.8322 23.846 20.6595C23.7712 21.6607 23.1734 22.6292 22.2456 23.1228C21.5243 23.5077 19.7486 23.4384 19.5891 22.431C20.4346 21.9487 21.7644 21.1363 21.3595 19.9677C21.239 19.6172 20.8823 19.4804 20.5765 19.4571C18.7992 19.3198 17.4628 21.1592 16.6941 22.5334C15.6551 24.3895 14.5271 26.9834 15.8545 29.0828C16.4017 29.9483 17.4661 30.1726 18.5101 29.9914C19.8149 29.7652 21.3715 29.1366 21.9489 27.8655L26.359 18.1519H29.2943L27.1648 23.1086C28.0045 22.5668 29.3005 21.6026 30.6115 22.3739C31.8783 23.1199 30.8385 24.6633 30.4191 25.6202L29.0573 28.7313C28.9375 29.0036 28.8717 29.341 29.0002 29.6392C29.3615 30.4777 30.6075 29.8481 30.8501 29.2986L33.925 22.3267H36.8814L33.9038 29.06C33.8153 29.2611 33.767 29.56 33.8813 29.7754C34.027 30.0485 34.3684 30.1178 34.6302 30.0253C35.1546 29.8397 35.6569 28.4542 35.6739 28.4135L38.3373 22.3267H41.3587L38.3543 29.1402C38.2457 29.3835 38.2414 29.6984 38.4103 29.9344C38.5486 30.1305 38.7756 30.2388 39.0004 30.2075C39.5056 30.1363 40.034 29.857 40.2602 29.345L43.3575 22.3271H46.1614L45.9708 22.8631C46.9105 22.492 48.1249 21.8794 49.0354 22.6238C50.2618 23.6283 49.5021 25.6769 49.161 26.9141C51.1228 25.6649 52.375 21.6157 55.8914 22.2955C56.3206 22.3775 56.7433 22.76 56.9362 23.1809L57.291 22.3275H60.2467C60.2464 22.3267 57.9995 27.47 56.9362 30.0253ZM28.7842 56.3505C27.8592 55.8094 27.7499 54.5816 28.8074 54.0689C29.8853 53.5456 31.1712 53.6574 32.3486 53.7504C33.3283 53.8284 34.2787 54.046 35.1974 54.3184C33.9231 56.5195 31.1232 57.716 28.7842 56.3505ZM44.4945 45.9183C44.2095 46.3573 42.9965 46.594 42.9965 45.9183V45.5438L45.2774 40.4234C45.418 40.1085 45.7561 39.9851 46.0841 39.947C46.3452 39.9179 46.5848 40.0882 46.697 40.2876C46.8332 40.5316 46.802 40.914 46.7196 41.1734C46.1919 42.8231 45.3897 44.5353 44.4945 45.9183ZM58.0151 37.824C56.959 38.3127 56.3547 39.4164 56.4597 40.5831C56.6718 42.9346 57.3272 45.8681 55.2562 47.6432C54.0684 48.6627 52.4955 49.1042 50.966 48.7106C50.2487 48.5253 49.5134 47.9018 49.4106 47.1315C49.3422 46.6188 49.4476 46.1115 49.7283 45.7363C50.0192 45.3485 50.439 45.0801 50.9129 45.0456C51.0974 45.0329 51.3789 45.0591 51.5783 45.2258C51.1795 45.6031 50.8123 46.2491 51.0676 46.8032C51.2111 47.1112 51.5223 47.275 51.8513 47.258C52.1698 47.2408 52.4912 47.1069 52.6804 46.8367C53.4847 45.6906 53.3406 44.1152 53.7238 42.786C53.9754 41.9116 54.2975 41.0775 54.6102 40.2426C54.6504 40.134 54.5989 40.0119 54.4954 39.9927C54.1501 39.9288 53.8523 40.3021 53.6671 40.504L48.1163 46.5643C46.9233 47.8673 45.4416 49.0871 43.5656 48.7106C42.9547 48.5878 42.4521 48.1426 42.191 47.5525L40.4995 51.2436C41.5152 51.719 43.5551 52.1401 44.7153 52.2357C46.4657 52.3825 48.2502 52.4292 49.944 52.1159C50.6286 51.9895 51.2837 51.7534 51.8738 51.3663C51.7957 51.923 51.3662 52.5509 51.3065 52.6276C48.1504 56.6207 42.7362 55.8967 38.2741 54.9539C37.2867 56.1697 36.1242 57.1819 34.7671 57.8032C32.4807 58.8494 29.4364 58.8396 27.2862 57.5315C26.2108 56.8761 25.5866 55.7194 25.6745 54.4207C25.7914 52.6751 27.3809 51.2403 28.8869 50.7198C31.6175 49.7772 34.7689 49.9185 37.5478 50.5077L38.6641 48.0642C37.5968 48.6536 36.0988 49.3614 34.8695 48.7338C34.4519 48.5195 34.3357 48.0863 34.1432 47.7238C33.1442 48.3132 32.1067 49.0388 30.8284 48.7672C30.0099 48.5932 29.5817 48.0743 29.4298 47.3012C28.2489 48.3118 26.6854 49.3069 25.1065 48.6317C24.4579 48.3528 24.2223 47.668 24.2223 47.0198C24.2223 46.4168 24.4071 45.887 24.6533 45.3281L26.5831 40.9576C27.0254 39.9552 25.4102 39.8299 25.0614 40.6177L21.5537 48.5504L18.2996 48.542L19.0287 46.9043C17.0467 48.3419 14.4854 50.0924 11.6553 48.359C9.2091 46.861 9.04641 43.5301 9.72478 40.9576C10.6138 37.5911 13.7623 34.4626 17.2065 33.6702C18.792 33.3056 20.6285 33.4545 21.7019 34.7706C22.275 35.4758 22.4035 36.4944 22.1668 37.3711C21.9718 38.0945 21.3024 38.7747 20.6114 39.0863C19.7046 39.4927 17.8831 39.5501 17.6263 38.3011C18.1256 38.2038 18.6718 37.9402 19.0792 37.5072C19.433 37.1335 19.7035 36.5754 19.4761 36.0314C19.2943 35.5967 18.84 35.3342 18.3525 35.3839C16.5023 35.5731 15.2233 37.3403 14.2551 38.767C13.2568 40.2382 12.7854 41.9817 12.8356 43.8875C12.8643 44.957 13.3698 46.0828 14.4135 46.5098C16.5623 47.3887 18.7143 45.8217 20.2348 44.2096L25.0611 33.396L28.2431 33.3833L26.1847 38.1991C27.2869 37.4771 28.7685 36.777 30.0214 37.6657C30.5182 38.0168 30.6025 38.7169 30.4195 39.2776C29.7276 41.3891 28.6178 43.3446 27.7967 45.4073C27.6787 45.7043 27.6243 46.0214 27.7967 46.2691C27.9649 46.5102 28.2728 46.5825 28.5684 46.5081C29.0446 46.3882 29.5276 46.0326 29.7269 45.5776L33.2625 37.5026H36.4242L33.1329 45.1691C33.0473 45.3699 33.0323 45.6899 33.1554 45.8729C33.2924 46.0766 33.5302 46.2346 33.7459 46.2128C34.0855 46.1786 34.4283 46.0091 34.5747 45.6801L38.1859 37.5026H41.4045L37.7632 45.6801C37.6673 45.8979 37.6985 46.1148 37.7979 46.3268C37.9022 46.5466 38.1271 46.6275 38.3547 46.6224C38.8079 46.6119 39.364 46.4921 39.5677 46.0301L43.339 37.5287H46.2663C46.2663 37.5287 46.1948 37.9579 46.1636 38.1188C47.0609 37.4945 48.3382 36.8544 49.4342 37.5058C50.9851 38.4323 50.1114 41.6894 50.0229 42.0586C51.9116 40.9387 53.9474 36.9219 57.0687 37.3155C57.32 37.3489 57.7243 37.4687 58.0151 37.824ZM39.8233 55.7663C40.1985 55.7663 40.5631 55.8563 40.9135 56.0379C41.2654 56.2173 41.5574 56.4918 41.7938 56.8608C42.0286 57.228 42.1514 57.6557 42.1472 58.0916C42.1472 58.7315 41.9194 59.2783 41.4648 59.7334C41.0086 60.188 40.4617 60.4165 39.8233 60.4165C39.1813 60.4165 38.634 60.1887 38.1793 59.737C37.7254 59.2831 37.4976 58.7339 37.4976 58.0916C37.4976 57.6427 37.6161 57.2342 37.8481 56.8681C38.0824 56.4999 38.3751 56.2253 38.724 56.0426C39.0619 55.8609 39.4397 55.7659 39.8233 55.7663ZM39.8262 56.2221C39.3255 56.2221 38.8899 56.4007 38.5174 56.7584C38.1458 57.1144 37.9592 57.5599 37.9592 58.0912C37.9592 58.6083 38.1415 59.0517 38.5069 59.4152C38.8722 59.7813 39.3119 59.9629 39.8262 59.9629C40.3398 59.9629 40.7795 59.7805 41.1448 59.4116C41.5124 59.0455 41.6953 58.6043 41.6953 58.0908C41.6953 57.5595 41.5086 57.1143 41.1372 56.758C40.7638 56.401 40.327 56.2221 39.8262 56.2221ZM38.7723 59.3346V56.8691H39.2739C39.7768 56.8691 40.0974 56.8765 40.2315 56.8924C40.3669 56.9095 40.4912 56.9781 40.6037 57.1001C40.7167 57.2229 40.7726 57.3791 40.7726 57.569C40.7726 57.7534 40.7123 57.9067 40.5902 58.028C40.4668 58.1507 40.3066 58.2266 40.1081 58.2564C40.1944 58.2854 40.2681 58.3294 40.3284 58.3882C40.3872 58.447 40.4879 58.5967 40.6299 58.8371L40.9222 59.3343H40.3023L40.0967 58.9348C39.9733 58.693 39.8662 58.5313 39.7761 58.4474C39.6853 58.3643 39.5618 58.321 39.4046 58.321H39.2742V59.3339H38.7723V59.3346ZM39.2735 57.9336H39.4765C39.714 57.9336 39.8745 57.9277 39.9537 57.9165C40.0319 57.9067 40.1041 57.8699 40.1578 57.8122C40.2132 57.7532 40.243 57.6746 40.2409 57.5936C40.2419 57.5531 40.2344 57.5129 40.219 57.4754C40.2036 57.4379 40.1807 57.4039 40.1516 57.3758C40.093 57.3192 40.0175 57.2836 39.9366 57.2744C39.853 57.2646 39.6991 57.2603 39.4761 57.2603H39.2731V57.9336H39.2735Z" fill="#313131"/>
<path fill-rule="evenodd" clip-rule="evenodd" d="M68.0169 21.3238C66.0238 16.512 61.3559 13.589 56.4413 13.5578C56.4109 8.64432 53.4878 3.9778 48.6761 1.98372C43.8628 -0.00889789 38.4973 1.22437 34.9997 4.67687C31.5032 1.22437 26.1373 -0.00889775 21.3248 1.98409C16.5116 3.97744 13.5889 8.64395 13.5577 13.5574C8.64384 13.5894 3.97732 16.5125 1.98397 21.3245C-0.00937822 26.1366 1.22389 31.503 4.67676 35.0005C1.22389 38.4974 -0.00901509 43.8644 1.98361 48.6762C3.97696 53.4887 8.64348 56.4102 13.5584 56.4422C13.5885 61.3561 16.5112 66.0232 21.3244 68.0169C26.1369 70.0099 31.5039 68.7767 35.0008 65.3238C38.4968 68.7767 43.8628 70.0085 48.6761 68.0155C53.4878 66.0225 56.4102 61.3561 56.4413 56.4422C61.3559 56.4109 66.0238 53.4887 68.0169 48.6762C70.0099 43.863 68.7766 38.4974 65.3237 34.9988C68.7766 31.5019 70.0099 26.1356 68.0169 21.3238ZM66.3885 48.0018C64.4151 52.7645 59.3971 55.3691 54.5144 54.5131C55.3697 59.3964 52.7655 64.4164 48.0025 66.3886C43.2381 68.3612 37.8476 66.6537 35.0001 62.5962C32.1529 66.654 26.7622 68.3612 21.9992 66.3886C17.2357 64.4159 14.6318 59.3971 15.4878 54.5138C10.6034 55.3705 5.58463 52.7657 3.61199 48.0032C1.63862 43.2383 3.34507 37.8476 7.4044 34.9998C3.3458 32.1523 1.63862 26.7628 3.61199 21.9993C5.58463 17.2354 10.6041 14.6313 15.4875 15.4875C14.6301 10.6035 17.2354 5.58512 21.9989 3.61283C26.7622 1.63837 32.1536 3.34555 35.0008 7.40415C37.8479 3.34555 43.2378 1.63837 48.0013 3.61283C52.7662 5.58512 55.3694 10.6035 54.5127 15.4875C59.396 14.6313 64.4158 17.2354 66.3881 21.9986C68.3608 26.7621 66.6533 32.1523 62.5957 34.9998C66.6536 37.8483 68.3608 43.238 66.3885 48.0018Z" fill="#313131"/>
</svg>
