<svg width="139" height="51" viewBox="0 0 139 51" fill="none" xmlns="http://www.w3.org/2000/svg">
<g clip-path="url(#clip0)">
<path fill-rule="evenodd" clip-rule="evenodd" d="M25.2393 12.3546C23.3056 12.3546 21.7393 10.7746 21.7393 8.82462C21.7393 6.87462 23.3056 5.29337 25.2393 5.29337C27.1706 5.29337 28.7381 6.87462 28.7381 8.82462C28.7381 10.7746 27.1718 12.3546 25.2393 12.3546ZM25.2393 1.14212C21.0231 1.14212 17.6056 4.58837 17.6056 8.84212C17.6026 10.5195 18.1467 12.152 19.1556 13.4921L19.6631 14.2009L25.2381 20.9846L31.3217 13.4909C32.3301 12.1506 32.8738 10.5181 32.8704 8.84087C32.8704 4.58837 29.4531 1.14087 25.2381 1.14087L25.2393 1.14212ZM28.1518 36.9171V23.9959H22.4979V30.0646L16.8481 23.2159L1.11426 42.2859L6.34801 46.6809L16.8481 33.9559L27.3481 46.6809L32.5804 42.2859L28.1518 36.9171Z" fill="#D7D7D7"/>
<path fill-rule="evenodd" clip-rule="evenodd" d="M62.8269 23.9785H57.8132V41.591H47.9019V23.9797H42.8894V46.271H61.3519V50.7435H65.8944V41.5935H62.8269V23.9772V23.9785ZM74.4144 38.986V23.9785H69.4019V46.2697H74.4144L84.9144 31.2622V46.2697H89.9282V23.9785H84.9157L74.4157 38.986H74.4144ZM133.131 23.9785V32.7372H122.896V23.9785H117.882V46.2697H122.896V37.4472H133.131V46.2697H138.114V23.9785H133.131ZM108.039 36.8572C108.039 38.6072 107.548 39.976 106.581 40.9272C105.601 41.8897 104.178 42.3772 102.353 42.3772C100.069 42.3772 98.8119 41.3397 98.8119 39.4535C98.8119 37.4872 100.457 36.3135 103.211 36.3135H108.038V36.8572H108.039ZM103.854 23.5535C101.234 23.5535 98.9782 24.261 97.3282 25.5985C95.7844 26.8485 94.8707 28.5972 94.7469 30.5235H99.6894C99.9144 29.4885 101.011 27.876 103.854 27.876C106.474 27.876 108.038 29.4535 108.038 32.0972V32.2072H102.996C100.011 32.2072 97.7044 32.8885 96.1407 34.2322C94.6432 35.5197 93.8844 37.3485 93.8844 39.6697C93.8844 41.671 94.6644 43.4672 96.0844 44.726C97.5369 46.0172 99.5569 46.6997 101.924 46.6997C105.632 46.6997 107.649 44.8747 108.343 44.0922L108.687 46.0022L108.734 46.2672H112.967V32.0972C112.967 26.8272 109.474 23.5535 103.854 23.5535Z" fill="#D7D7D7"/>
</g>
<defs>
<clipPath id="clip0">
<rect width="137.5" height="50" fill="white" transform="translate(0.864258 0.942139)"/>
</clipPath>
</defs>
</svg>
