<svg width="215" height="59" viewBox="0 0 215 59" fill="none" xmlns="http://www.w3.org/2000/svg">
<g clip-path="url(#clip0)">
<path d="M108.883 35.0638V18.2025H102.815V14.3225H119.39V18.2025H113.352V35.0638H108.883Z" fill="#D7D7D7"/>
<path d="M133.326 35.0638L132.039 31.5352H123.111L121.795 35.0638H116.752L124.779 14.3225H130.337L138.335 35.0638H133.326ZM127.605 18.7469L124.364 27.6898H130.852L127.605 18.7469Z" fill="#D7D7D7"/>
<path d="M159.051 24.7106C159.051 18.1383 164.03 13.9712 170.097 13.9712C174.433 13.9712 177.13 16.1488 178.704 18.6183L175.042 20.6078C174.111 19.133 172.344 17.9156 170.127 17.9156C166.371 17.9156 163.609 20.8008 163.609 24.7452C163.609 28.6549 166.341 31.5749 170.127 31.5749C171.958 31.5749 173.725 30.7731 174.561 30.006V27.4672H169.068V23.6218H178.991V31.5699C176.873 33.9405 173.918 35.4796 170.127 35.4796C164.03 35.4796 159.051 31.2482 159.051 24.7106Z" fill="#D7D7D7"/>
<path d="M204.498 35.0638V18.2025H198.431V14.3225H215.005V18.2025H208.967V35.0638H204.498Z" fill="#D7D7D7"/>
<path d="M156.705 21.0235C156.705 17.1781 154.072 14.3225 149.737 14.3225H140.007V35.0638H144.442V27.6898H148.134L152.662 35.0638H157.705L152.598 27.18C154.844 26.6357 156.705 24.6808 156.705 21.0235ZM149.059 23.8147H144.402V18.2025H149.059C150.826 18.2025 152.177 19.2616 152.177 20.9938C152.177 22.7556 150.831 23.8147 149.059 23.8147Z" fill="#D7D7D7"/>
<path d="M181.856 35.0638H196.565V31.1838H186.286V26.4723H195.471V22.5923H186.286V18.2025H196.565V14.3225H181.856V35.0638V35.0638Z" fill="#D7D7D7"/>
<path d="M99.9501 8.71538H93.7539C92.5315 8.65104 92.2445 8.13634 92.2445 7.0822C92.2445 7.05251 92.2445 7.05251 92.2445 7.01787V1.0543C92.2445 -0.643209 90.735 0.222869 90.735 0.222869L85.6623 5.28571C84.0885 6.85455 84.2815 8.75002 84.2815 8.75002V12.2737L76.3779 20.0932C75.7692 19.9001 75.1555 19.8061 74.4824 19.8061C70.9488 19.8061 68.0933 22.6568 68.0933 26.1854C68.0933 29.7091 70.9538 32.5647 74.4824 32.5647C78.016 32.5647 80.8766 29.714 80.8766 26.1854C80.8766 25.6064 80.8122 25.0966 80.6489 24.5522L88.7109 16.5695H92.3088C92.3088 16.5695 94.2043 16.7625 95.778 15.1887L100.786 10.1902C100.757 10.2199 101.653 8.71538 99.9501 8.71538Z" fill="#D7D7D7"/>
<path d="M91.022 19.9992C89.3542 20.3209 88.2605 21.9244 88.5822 23.6219C88.7405 24.5177 88.8395 25.4481 88.8395 26.3488C88.8395 34.2969 82.3513 40.8049 74.3537 40.8049C71.0132 40.8049 67.8953 39.7161 65.297 37.6326C62.7928 35.6134 60.9914 32.7924 60.254 29.6845C59.967 28.4027 58.8732 27.4723 57.6211 27.3139C56.6561 27.2199 55.9187 27.3436 55.7603 27.3782C53.1918 27.7939 50.94 28.5957 49.0791 29.5558C49.0791 29.3628 49.0791 29.2341 49.0791 29.2044C49.1732 27.0268 49.1732 26.0618 49.3662 23.8842C49.4008 23.6269 49.4305 23.3695 49.4602 23.0825C50.1036 19.9745 50.9696 18.2077 50.841 16.8319C50.7766 16.1885 50.7123 15.8074 50.4549 15.1987C50.1679 14.6197 49.7472 14.3029 49.2969 14.0109C49.1385 13.8823 48.9455 13.7882 48.7525 13.6892C48.7525 13.6892 48.7525 13.6892 48.7228 13.6892C48.6288 13.6596 48.5298 13.5952 48.4011 13.5606C47.1787 13.1102 45.9612 13.4665 45.1249 14.491C44.3875 15.3868 44.1301 16.4805 43.8728 17.599C43.457 19.3608 43.0067 22.0877 42.492 23.8199C42.0763 25.166 41.2696 26.8338 40.2748 27.5069C39.2801 28.18 38.0923 27.8929 37.6716 26.4181C37.157 24.686 37.2856 22.6668 37.543 20.9049C37.736 19.6528 38.6367 19.5241 38.8594 17.5049C39.1465 15.0354 37.8647 13.5606 35.6475 13.3676C34.1727 13.2389 32.9503 13.8476 32.1485 15.3571C31.3765 16.8616 31.1192 18.5294 31.0251 20.1972C30.9608 21.5136 30.9608 23.0181 30.9608 24.3346C30.9311 24.4286 30.8668 24.5276 30.8024 24.6216C29.7433 26.5468 27.6202 28.5016 27.0758 28.18C26.7888 27.9869 26.8828 27.3782 26.8828 27.0565C26.8185 24.78 27.1698 20.6476 27.4618 17.599C27.6202 15.8025 26.5958 14.3623 24.2499 14.3623C22.7405 14.3623 21.8398 15.2927 21.0083 16.1885C19.5632 17.7276 18.4051 19.5241 17.2817 20.8356C17.0887 21.0583 16.767 21.479 16.4453 21.3503C16.1236 21.2216 16.094 20.7713 16.094 20.4546C16.0643 18.9501 16.1236 19.2371 16.1236 17.7276C16.1236 17.3763 16.0593 16.6042 15.995 16.0301C15.8366 14.397 14.1341 13.5606 12.689 13.7882C11.7586 13.9169 11.0212 14.5553 10.5362 15.3274C9.76416 16.5795 9.41278 17.1882 8.70507 18.4997C8.19038 19.4301 8.0617 19.7171 7.74002 20.1972C7.48267 20.5832 7.16098 20.9643 6.77496 21.0286C6.2949 21.093 6.26026 20.6426 6.26026 20.5783C6.23057 19.8755 6.19592 18.3017 6.19592 18.079C6.19592 17.2129 6.35429 15.1641 4.65183 14.971C0.64313 14.6444 0.0294521 19.1975 -0.000241995 21.3751C-0.0299361 23.7803 0.0294521 25.4481 0.0640952 27.8484C0.0937893 29.6746 0.0937893 30.7337 0.257107 32.5598C0.415475 34.579 2.08824 35.7025 3.94907 35.1234C4.91413 34.8364 5.55255 34.1287 5.93857 33.2329C6.35429 32.3371 7.16098 30.219 7.60639 29.2588C8.12109 28.1057 8.66548 26.725 9.18018 25.7648C9.37319 25.4135 9.85324 25.1561 10.2096 25.1858C10.6253 25.2155 10.8183 25.5372 10.8183 25.7945C10.7886 26.8833 10.7243 27.8484 10.6253 28.9025C10.4669 30.9861 10.6896 32.4262 10.947 33.1042C11.14 33.6189 11.6547 34.2277 12.5208 34.579C14.0005 35.1581 15.703 34.6434 16.5047 33.1686C17.6281 31.0553 17.9498 29.2588 18.9446 27.0763C19.2019 26.5319 19.588 25.6015 20.4243 25.5075C20.6817 25.4778 21.3251 25.6015 21.3251 26.1162C21.3251 26.5022 21.132 30.3773 21.4834 32.0798C21.8051 33.6189 23.2156 35.2867 26.0118 35.0937C26.8135 35.0294 27.6153 34.678 28.323 34.1336C29.2534 33.7476 30.3768 32.6885 31.6635 30.5109C32.0793 31.9511 33.1433 33.2032 33.6877 33.9109C35.5832 36.2518 38.3447 36.3458 40.4629 34.3613C41.4923 33.4012 41.9723 32.5351 42.3584 31.7334C42.294 32.5994 42.2297 33.5298 42.1654 34.49C35.7118 38.657 32.3713 42.8538 32.0149 47.1842C31.7279 51.0642 33.7817 54.9393 38.216 57.5078C39.2454 58.1165 40.2699 58.5026 41.329 58.4679C41.9723 58.4333 42.6157 58.3096 43.2244 57.9879C46.9164 56.1914 47.5301 46.6398 48.4902 38.0186L48.5248 37.5682C49.4899 36.7665 50.836 35.8361 52.5385 35.069C52.6969 35.0047 53.4689 34.6533 53.8252 34.5543C54.6913 34.3316 55.305 34.6186 55.785 35.4204C55.8494 35.549 56.0721 35.9648 56.0721 35.9994C57.3885 38.469 59.19 40.6812 61.4022 42.443C65.0644 45.358 69.6225 46.9615 74.3141 46.9615C85.7167 46.9615 94.9664 37.6969 94.9664 26.3488C94.9664 25.0324 94.8377 23.7209 94.615 22.4391C94.3329 20.801 92.7245 19.6776 91.022 19.9992ZM40.9182 49.2331C40.8242 49.6191 40.4035 49.7478 40.0175 49.4558C38.8594 48.5897 38.6021 47.3722 38.6664 46.4418C38.7307 45.7688 39.1465 44.1653 41.7496 41.7947C41.7199 43.4972 41.4032 47.5356 40.9182 49.2331Z" fill="#D7D7D7"/>
<path d="M57.4282 20.7366C57.9082 20.9939 58.3932 21.1226 58.9079 21.1226C60.0016 21.1226 61.0607 20.5436 61.6398 19.5191C64.1786 14.8373 69.0583 11.9224 74.3884 11.9224C75.4178 11.9224 76.4423 12.0164 77.442 12.2441C79.1098 12.5954 80.7479 11.5413 81.1042 9.87349C81.4556 8.20567 80.3965 6.57249 78.7287 6.22111C77.3133 5.89943 75.8385 5.77075 74.3587 5.77075C66.7471 5.77075 59.8086 9.90813 56.181 16.6041C55.3743 18.0443 55.9484 19.9348 57.4282 20.7366Z" fill="#D7D7D7"/>
</g>
<defs>
<clipPath id="clip0">
<rect width="215" height="58.4627" fill="white"/>
</clipPath>
</defs>
</svg>
