<svg width="758" height="190" viewBox="0 0 758 190" fill="none" xmlns="http://www.w3.org/2000/svg">
<path d="M84.138 135.533C80.0953 134.267 76.558 132.493 73.526 130.467C70.494 128.187 67.9673 125.653 66.1987 122.867C64.1773 119.827 62.6613 116.787 61.6507 113.24H77.8213C79.59 116.787 82.3693 119.32 85.9067 120.84C89.444 122.36 93.4867 123.12 98.2873 123.12C103.341 123.12 107.636 122.107 110.668 120.333C113.7 118.307 115.469 115.773 115.469 112.733C115.469 109.693 114.458 107.413 112.184 105.893C109.91 104.373 106.625 103.36 101.825 102.853L87.6753 101.333C83.38 100.827 79.8427 100.067 76.8107 98.8C73.7787 97.5333 71.252 95.76 69.4833 93.7333C67.462 91.7067 66.1987 89.4267 65.188 86.64C64.1773 84.1067 63.9247 81.0667 63.9247 78.0267C63.9247 74.2267 64.6827 70.68 66.1987 67.64C67.7147 64.6 69.9887 61.8133 72.768 59.5333C75.5473 57.2533 79.0847 55.48 82.8747 54.2133C86.9173 52.9467 91.2127 52.1867 96.266 52.1867C101.319 52.1867 105.867 52.9467 109.91 54.2133C113.953 55.48 117.49 57.5067 120.269 59.7867C123.301 62.0667 125.828 64.6 127.597 67.64C129.618 70.68 131.134 73.4667 131.892 76.5067H115.721C114.458 73.4667 111.679 71.1867 108.141 69.4133C104.351 67.64 100.309 66.88 96.0133 66.88C90.7073 66.88 86.6647 67.8933 83.8853 70.1733C81.3587 72.2 79.8427 74.7333 79.8427 77.7733C79.8427 80.56 80.8533 82.5867 82.8747 84.1067C84.896 85.6267 87.6753 86.64 91.4653 87.1467L106.373 88.6667C114.205 89.4267 120.269 91.96 124.817 96.2667C129.365 100.573 131.387 105.64 131.387 112.227C131.387 115.52 130.629 118.813 129.365 121.853C128.102 124.893 125.828 127.68 123.049 129.96C120.269 132.24 116.732 134.267 112.689 135.533C108.647 136.8 103.593 137.56 98.2873 137.56C92.9813 137.56 88.1807 136.8 84.138 135.533Z" fill="white"/>
<path d="M178.13 87.6533H218.304V102.093H178.13V121.6H219.062V136.04H162.212V53.96H219.062V68.4H178.13V87.6533Z" fill="white"/>
<path d="M315.075 68.4H288.798V135.787H272.88V68.4H246.35V53.96H315.328V68.4H315.075Z" fill="white"/>
<path d="M411.089 68.4H384.811V135.787H368.893V68.4H342.363V53.96H411.341V68.4H411.089Z" fill="white"/>
<path d="M456.316 87.6533H496.49V102.093H456.316V121.6H497.248V136.04H440.398V53.96H497.248V68.4H456.316V87.6533Z" fill="white"/>
<path d="M578.354 103.867C580.123 103.613 581.891 103.107 583.66 102.347C587.197 101.08 590.229 99.0533 592.503 96.7733C594.777 94.4933 596.546 91.7066 597.557 88.6666C598.567 85.6266 599.325 82.3333 599.325 79.04C599.325 75.7466 598.82 72.4533 597.557 69.4133C596.546 66.3733 594.777 63.5866 592.503 61.3066C590.229 59.0266 587.197 57.2533 583.66 55.7333C580.123 54.4666 575.827 53.7066 571.027 53.7066H530.853V135.533H546.771V104.373H560.162L584.671 135.787H603.368L578.354 103.867ZM547.023 90.1866V68.4H570.016C574.059 68.4 577.343 69.4133 579.617 71.1866C581.891 73.2133 583.155 75.7466 583.155 79.04C583.155 82.3333 581.891 84.8666 579.617 86.8933C577.343 88.92 574.059 89.9333 570.016 89.9333H547.023V90.1866Z" fill="white"/>
<path d="M648.848 135.533C644.805 134.267 641.268 132.493 638.236 130.467C635.204 128.187 632.677 125.653 630.909 122.867C628.887 119.827 627.371 116.787 626.361 113.24H642.531C644.3 116.787 647.079 119.32 650.617 120.84C654.154 122.36 658.197 123.12 662.997 123.12C668.051 123.12 672.346 122.107 675.378 120.333C678.41 118.307 680.179 115.773 680.179 112.733C680.179 109.693 679.168 107.413 676.894 105.893C674.62 104.373 671.335 103.36 666.535 102.853L652.385 101.333C648.09 100.827 644.553 100.067 641.521 98.8C638.489 97.5333 635.962 95.76 634.193 93.7333C632.172 91.7067 630.909 89.4267 629.898 86.64C628.887 84.1067 628.635 81.0667 628.635 78.0267C628.635 74.2267 629.393 70.68 630.909 67.64C632.425 64.6 634.699 61.8133 637.478 59.5333C640.257 57.2533 643.795 55.48 647.585 54.2133C651.627 52.9467 655.923 52.1867 660.976 52.1867C666.029 52.1867 670.577 52.9467 674.62 54.2133C678.663 55.48 682.2 57.5067 684.979 59.7867C688.011 62.0667 690.538 64.6 692.307 67.64C694.328 70.68 695.844 73.4667 696.602 76.5067H680.431C679.168 73.4667 676.389 71.1867 672.851 69.4133C669.061 67.64 665.019 66.88 660.723 66.88C655.417 66.88 651.375 67.8933 648.595 70.1733C646.069 72.2 644.553 74.7333 644.553 77.7733C644.553 80.56 645.563 82.5867 647.585 84.1067C649.606 85.6267 652.385 86.64 656.175 87.1467L671.083 88.6667C678.915 89.4267 684.979 91.96 689.527 96.2667C694.075 100.573 696.097 105.64 696.097 112.227C696.097 115.52 695.339 118.813 694.075 121.853C692.812 124.893 690.538 127.68 687.759 129.96C684.979 132.24 681.442 134.267 677.399 135.533C673.357 136.8 668.303 137.56 662.997 137.56C657.691 137.56 652.891 136.8 648.848 135.533Z" fill="white"/>
<path d="M0 0V190H758V0H0ZM743.598 175.56H14.402V14.44H743.598V175.56Z" fill="white"/>
</svg>
