<?xml version="1.0" encoding="UTF-8"?>
<svg width="7px" height="6px" viewBox="0 0 7 6" version="1.1" xmlns="http://www.w3.org/2000/svg" xmlns:xlink="http://www.w3.org/1999/xlink">
    <!-- Generator: Sketch 52.3 (67297) - http://www.bohemiancoding.com/sketch -->
    <title>➜</title>
    <desc>Created with Sketch.</desc>
    <g id="1440" stroke="none" stroke-width="1" fill="none" fill-rule="evenodd">
        <g id="1440---Education-Hover" transform="translate(-980.000000, -616.000000)" fill="#FFD2B3">
            <g id="Group-2" transform="translate(200.000000, 251.000000)">
                <g id="education" transform="translate(622.000000, 0.000000)">
                    <g id="1" transform="translate(0.000000, 199.000000)">
                        <g id="READ-MORE" transform="translate(76.000000, 161.000000)">
                            <path d="M88.2476028,8.18494487 L86.8164062,9.79296875 C86.7434892,9.87369832 86.6601567,9.93554666 86.5664062,9.97851562 C86.4726558,10.0214846 86.3736984,10.0429688 86.2695312,10.0429688 C86.0716136,10.0429688 85.9049486,9.97786523 85.7695312,9.84765625 C85.6341139,9.71744727 85.5664062,9.55729262 85.5664062,9.3671875 C85.5664062,9.26302031 85.5865883,9.1627609 85.6269531,9.06640625 C85.6673179,8.9700516 85.72526,8.88411496 85.8007812,8.80859375 L86.3515625,8.2578125 L82.734375,8.2578125 C82.5286448,8.2578125 82.3548184,8.1875007 82.2128906,8.046875 C82.0709628,7.9062493 82,7.7304698 82,7.51953125 C82,7.31380105 82.0709628,7.13997467 82.2128906,6.99804688 C82.3548184,6.85611908 82.5286448,6.78515625 82.734375,6.78515625 L86.3515625,6.78515625 L85.8007812,6.15234375 C85.7226559,6.06901 85.6640627,5.98242232 85.625,5.89257812 C85.5859373,5.80273393 85.5664062,5.71354211 85.5664062,5.625 C85.5664062,5.45572832 85.636067,5.30924541 85.7753906,5.18554688 C85.9147142,5.06184834 86.0794261,5 86.2695312,5 C86.3763026,5 86.4772131,5.0221352 86.5722656,5.06640625 C86.6673182,5.1106773 86.7486976,5.17187461 86.8164062,5.25 L88.2470346,6.85462372 C88.5849295,7.23361386 88.5851738,7.80566626 88.2476028,8.18494487 Z" id="➜"></path>
                        </g>
                    </g>
                </g>
            </g>
        </g>
    </g>
</svg>