<svg width="43" height="43" viewBox="0 0 43 43" fill="none" xmlns="http://www.w3.org/2000/svg">
<path d="M12.3184 26.9095V15.3472L17.4347 22.8266L22.749 15.3472V26.9095" stroke="#DF7AF8" stroke-width="1.53164" stroke-miterlimit="10" stroke-linecap="round" stroke-linejoin="round"/>
<path d="M27.3711 15.3472V26.9095H33.8648" stroke="#DF7AF8" stroke-width="1.53164" stroke-miterlimit="10" stroke-linecap="round" stroke-linejoin="round"/>
<path d="M35.3185 42.406H7.78999C4.03945 42.406 1 39.3665 1 35.616V8.08745C1 4.33691 4.03945 1.29745 7.78999 1.29745H35.3185C39.0691 1.29745 42.1085 4.33691 42.1085 8.08745V35.616C42.1085 39.3651 39.0676 42.406 35.3185 42.406Z" stroke="#DF7AF8" stroke-width="1.14873" stroke-miterlimit="10"/>
<path d="M5.26987 6.85606C5.91403 6.85606 6.43622 6.33386 6.43622 5.6897C6.43622 5.04554 5.91403 4.52335 5.26987 4.52335C4.62571 4.52335 4.10352 5.04554 4.10352 5.6897C4.10352 6.33386 4.62571 6.85606 5.26987 6.85606Z" fill="#DF7AF8"/>
<path d="M9.79526 10.2511C10.4394 10.2511 10.9616 9.72886 10.9616 9.0847C10.9616 8.44054 10.4394 7.91835 9.79526 7.91835C9.1511 7.91835 8.62891 8.44054 8.62891 9.0847C8.62891 9.72886 9.1511 10.2511 9.79526 10.2511Z" fill="#DF7AF8"/>
<path d="M32.9203 10.2511C33.5644 10.2511 34.0866 9.72886 34.0866 9.0847C34.0866 8.44054 33.5644 7.91835 32.9203 7.91835C32.2761 7.91835 31.7539 8.44054 31.7539 9.0847C31.7539 9.72886 32.2761 10.2511 32.9203 10.2511Z" fill="#DF7AF8"/>
<path d="M8.92612 35.5553C9.57028 35.5553 10.0925 35.0331 10.0925 34.3889C10.0925 33.7448 9.57028 33.2226 8.92612 33.2226C8.28196 33.2226 7.75977 33.7448 7.75977 34.3889C7.75977 35.0331 8.28196 35.5553 8.92612 35.5553Z" fill="#DF7AF8"/>
<path d="M32.055 35.5553C32.6992 35.5553 33.2214 35.0331 33.2214 34.3889C33.2214 33.7448 32.6992 33.2226 32.055 33.2226C31.4109 33.2226 30.8887 33.7448 30.8887 34.3889C30.8887 35.0331 31.4109 35.5553 32.055 35.5553Z" fill="#DF7AF8"/>
<path d="M36.5706 39.2885C37.2148 39.2885 37.737 38.7663 37.737 38.1221C37.737 37.4779 37.2148 36.9557 36.5706 36.9557C35.9265 36.9557 35.4043 37.4779 35.4043 38.1221C35.4043 38.7663 35.9265 39.2885 36.5706 39.2885Z" fill="#DF7AF8"/>
<path opacity="0.25" d="M2.73828 3.54923L9.79421 9.29861H42.1081" stroke="#DF7AF8" stroke-width="0.918987" stroke-miterlimit="10"/>
<path opacity="0.25" d="M39.5951 40.8884L31.9842 34.4207H1" stroke="#DF7AF8" stroke-width="0.918987" stroke-miterlimit="10"/>
</svg>
