<svg width="49" height="45" viewBox="0 0 49 45" fill="none" xmlns="http://www.w3.org/2000/svg">
<path d="M36.4613 1.53165H12.8204L1 22.591L12.8204 43.6519H36.4613L48.2818 22.591L36.4613 1.53165Z" stroke="#DF7AF8" stroke-width="1.22532" stroke-miterlimit="10" stroke-linecap="round" stroke-linejoin="round"/>
<path d="M30.0263 13.0002H19.2592L13.875 22.591L19.2592 32.1833H30.0263L35.4091 22.591L30.0263 13.0002Z" stroke="#DF7AF8" stroke-width="1.22532" stroke-miterlimit="10" stroke-linecap="round" stroke-linejoin="round"/>
<path d="M30.0255 32.1833L23.5879 43.6518" stroke="#DF7AF8" stroke-width="1.22532" stroke-miterlimit="10" stroke-linecap="round" stroke-linejoin="round"/>
<path d="M13.8747 22.591L7.41797 11.1586" stroke="#DF7AF8" stroke-width="1.22532" stroke-miterlimit="10" stroke-linecap="round" stroke-linejoin="round"/>
<path d="M42.8992 13.0002H30.0254" stroke="#DF7AF8" stroke-width="1.22532" stroke-miterlimit="10" stroke-linecap="round" stroke-linejoin="round"/>
<path d="M24.7601 27.1272C27.198 27.1272 29.1744 25.0942 29.1744 22.5865C29.1744 20.0787 27.198 18.0458 24.7601 18.0458C22.3221 18.0458 20.3457 20.0787 20.3457 22.5865C20.3457 25.0942 22.3221 27.1272 24.7601 27.1272Z" fill="#DF7AF8"/>
</svg>
