
<svg width="98px" height="26px" viewBox="0 0 98 26" version="1.1" xmlns="http://www.w3.org/2000/svg" xmlns:xlink="http://www.w3.org/1999/xlink">
    <g id="Symbols" stroke="none" stroke-width="1" fill="none" fill-rule="evenodd">
        <g id="main-screen-1920/-default" transform="translate(-48.000000, -27.000000)" fill="#52379E">
            <g id="main-screen-elements" transform="translate(48.000000, 27.000000)">
                <g id="header">
                    <g id="Logo">
                        <path d="M24.5362481,8.93983993 C25.5116917,10.2331658 26,11.9399391 26,14.0598624 L26,23.9513494 C26,24.2543657 25.9017518,24.504994 25.7073083,24.7029369 C25.5116917,24.9008797 25.2647513,25 24.9667806,25 C24.66793,25 24.4209897,24.9008797 24.2262529,24.7029369 C24.0309296,24.504994 23.9335612,24.2543657 23.9335612,23.9513494 L23.9335612,14.1649358 C23.9335612,12.6269348 23.5719491,11.3749835 22.8487248,10.4078913 C22.1255005,9.44109671 21.0063506,8.95740177 19.491275,8.95740177 C18.526976,8.95740177 17.6142939,9.19046832 16.7535222,9.65630374 C15.8924571,10.1224368 15.1979741,10.7570446 14.6700732,11.56102 C14.1415857,12.3649954 13.8779286,13.233265 13.8779286,14.1649358 L13.8779286,23.9513494 C13.8779286,24.2543657 13.7802669,24.504994 13.5852368,24.7029369 C13.3899135,24.9008797 13.1429732,25 12.8450024,25 C12.5461519,25 12.2992115,24.9008797 12.1044747,24.7029369 C11.9091514,24.504994 11.811783,24.2543657 11.811783,23.9513494 L11.811783,14.0598624 C11.811783,12.5459717 11.467181,11.3163448 10.7788569,10.3727676 C10.0899462,9.42919037 9.0106821,8.95740177 7.54165116,8.95740177 C6.59993458,8.95740177 5.71071481,9.19046832 4.87281874,9.65630374 C4.03433612,10.1224368 3.35744983,10.7457336 2.84069349,11.5261939 C2.3245237,12.306952 2.06614553,13.1514089 2.06614553,14.0598624 L2.06614553,23.9513494 C2.06614553,24.2543657 1.96819059,24.504994 1.7734538,24.7029369 C1.57813046,24.9008797 1.33089687,25 1.03292613,25 C0.734368831,25 0.487428513,24.9008797 0.292691731,24.7029369 C0.0970751131,24.504994 0,24.2543657 0,23.9513494 L0,8.29332584 C0,7.99060722 0.0970751131,7.73997883 0.292691731,7.54173833 C0.487428513,7.34379548 0.734368831,7.24467522 1.03292613,7.24467522 C1.33089687,7.24467522 1.57813046,7.34379548 1.7734538,7.54173833 C1.96819059,7.73997883 2.06614553,7.99060722 2.06614553,8.29332584 L2.06614553,10.3203797 C2.68613583,9.36519381 3.52373862,8.57252944 4.58012701,7.94357719 C5.63563557,7.31462495 6.7495065,7 7.92027343,7 C9.25175685,7 10.3999413,7.32653129 11.3639471,7.97840323 C12.3285394,8.63116814 13.0171568,9.58635402 13.4303859,10.8445562 C13.9125354,9.81942056 14.7961829,8.92198042 16.0819149,8.15312872 C17.3673536,7.38427702 18.6645235,7 19.9731312,7 C22.03957,7 23.5599247,7.64651409 24.5362481,8.93983993" id="Fill-1"></path>
                        <path d="M42.1734021,23.0233283 C43.0970753,22.3700088 43.8210508,21.4671407 44.3444751,20.3141168 C44.8673304,19.1617001 45.1296115,17.8723656 45.1296115,16.4464169 C45.1296115,15.0684349 44.8673304,13.8085484 44.3444751,12.667668 C43.8210508,11.5270912 43.0970753,10.6302948 42.1734021,9.97636814 C41.2488755,9.32304865 40.2077162,8.99608532 39.0502089,8.99608532 C37.8921326,8.99608532 36.8509734,9.3172805 35.9270157,9.9584565 C35.0027736,10.6005433 34.2787981,11.4858033 33.7559428,12.6142366 C33.232234,13.7435807 32.9708063,15.0204682 32.9708063,16.4464169 C32.9708063,17.8723656 33.2265446,19.1617001 33.739159,20.3141168 C34.2512046,21.4671407 34.9694906,22.3700088 35.8937328,23.0233283 C36.817406,23.6772549 37.8696595,24.0039147 39.0502089,24.0039147 C40.2077162,24.0039147 41.2488755,23.6772549 42.1734021,23.0233283 M46.7160992,7.74834225 C46.9049871,7.96237118 47,8.22406327 47,8.53250779 L47,24.5740513 C47,24.883103 46.9049871,25.1387233 46.7160992,25.3406088 C46.5266424,25.5424942 46.2871189,25.6435887 45.9980976,25.6435887 C45.708223,25.6435887 45.4686994,25.5424942 45.2798115,25.3406088 C45.0903547,25.1387233 44.9959107,24.883103 44.9959107,24.5740513 L44.9959107,22.186035 C44.438919,23.2549652 43.6040004,24.1587441 42.4905858,24.8952465 C41.3768868,25.6320524 40.1636234,26 38.8496577,26 C37.357614,26 36.0157703,25.5846928 34.8246955,24.7522569 C33.6333363,23.9207318 32.6979998,22.7798514 32.0189706,21.3299193 C31.3393724,19.880898 31,18.2527602 31,16.4464169 C31,14.6409843 31.3450618,13.0189183 32.0354698,11.5805225 C32.7255934,10.1430375 33.6666193,9.02006871 34.858263,8.21191979 C36.0490532,7.40407446 37.3684239,7 38.8163748,7 C40.1525291,7 41.3768868,7.34487497 42.4905858,8.03371415 C43.6040004,8.7231605 44.438919,9.6260286 44.9959107,10.742622 L44.9959107,8.53250779 C44.9959107,8.22406327 45.0903547,7.96237118 45.2798115,7.74834225 C45.4686994,7.53461692 45.708223,7.42745067 45.9980976,7.42745067 C46.2871189,7.42745067 46.5266424,7.53461692 46.7160992,7.74834225" id="Fill-3"></path>
                        <path d="M54,21.9717668 C54,21.6630237 54.1468469,21.4253188 54.4411189,21.2586521 C54.5769812,21.116272 54.7579383,21.0449302 54.9842791,21.0449302 C55.2560037,21.0449302 55.5046029,21.1639344 55.7309437,21.4013358 C57.0658632,23.2550091 58.8421907,24.1818458 61.0599262,24.1818458 C62.1462466,24.1818458 63.0909232,23.9143898 63.8942453,23.3797814 C64.6972783,22.8448695 65.0990839,22.0667881 65.0990839,21.0449302 C65.0990839,20.0467517 64.725607,19.2978142 63.9789425,18.7990285 C63.2322779,18.3002429 62.1913413,17.8724954 60.8564218,17.5157863 C58.9777639,17.0170006 57.5072712,16.3694596 56.4437872,15.5731633 C55.3800142,14.7771706 54.8484168,13.606861 54.8484168,12.0616272 C54.8484168,11.0877353 55.1082896,10.2143291 55.6291915,9.44201579 C56.1495153,8.66970249 56.8562884,8.06952034 57.7506671,7.64177292 C58.6441786,7.2140255 59.6567864,7 60.7884906,7 C61.761207,7 62.7402828,7.19611415 63.7245619,7.58834244 C64.7088411,7.98026715 65.5517655,8.60412872 66.2533354,9.45962356 C66.4568398,9.62598664 66.558592,9.86399514 66.558592,10.1727383 C66.558592,10.4574985 66.4452771,10.7076503 66.2195144,10.9210686 C66.0608156,11.0637523 65.8570221,11.1350941 65.608423,11.1350941 C65.3820822,11.1350941 65.1782887,11.0403764 64.9973317,10.8497268 C64.4544606,10.2079539 63.8095482,9.72131148 63.0625945,9.38858531 C62.3159299,9.05585914 61.5126078,8.88919247 60.6526283,8.88919247 C59.5888553,8.88919247 58.6782887,9.15088039 57.9203504,9.67334548 C57.161834,10.1964177 56.783154,10.9805707 56.783154,12.0264117 C56.8285378,12.9769277 57.241617,13.7015786 58.0221026,14.2006679 C58.8028773,14.6997571 59.9510584,15.151184 61.4675131,15.555252 C62.6437339,15.8642987 63.6170284,16.2091682 64.3865294,16.5889496 C65.1554523,16.9696418 65.7833096,17.5039466 66.2701014,18.1930783 C66.7566041,18.8825137 67,19.797207 67,20.9380692 C67,22.4829994 66.411456,23.7131148 65.2349462,24.6275046 C64.0581473,25.5425015 62.5986392,26 60.8564218,26 C58.0955261,26 55.9006271,24.9189435 54.2714356,22.7559199 C54.0901895,22.4471767 54,22.1857923 54,21.9717668" id="Fill-5"></path>
                        <path d="M95.143968,12.667668 C94.5840346,11.5270912 93.8055069,10.6302948 92.8092433,9.97636814 C91.8124074,9.32274507 90.7094217,8.99608532 89.4997139,8.99608532 C88.2905783,8.99608532 87.1927427,9.32274507 86.2076377,9.97636814 C85.2216743,10.6302948 84.4437189,11.5270912 83.8726269,12.667668 C83.3015349,13.8085484 83.0157028,15.0921147 83.0157028,16.5177598 C83.0157028,17.9200288 83.3015349,19.1914516 83.8726269,20.3320284 C84.4437189,21.4729088 85.2216743,22.3697052 86.2076377,23.0233283 C87.1927427,23.6772549 88.2905783,24.0039147 89.4997139,24.0039147 C90.7094217,24.0039147 91.8124074,23.6827195 92.8092433,23.0412399 C93.8055069,22.3994567 94.5840346,21.5084285 95.143968,20.3675481 C95.7036152,19.2266677 95.984011,17.9437086 95.984011,16.5177598 C95.984011,15.0921147 95.7036152,13.8085484 95.143968,12.667668 M96.8910058,21.3657426 C96.1519624,22.8156747 95.1322371,23.9504833 93.8338326,24.769865 C92.5345698,25.5898538 91.0899589,26 89.4997139,26 C87.9094688,26 86.464858,25.5898538 85.1658812,24.769865 C83.8669045,23.9504833 82.8480376,22.8156747 82.1087081,21.3657426 C81.3696647,19.9164177 81,18.3001198 81,16.5177598 C81,14.7357034 81.3696647,13.1197092 82.1087081,11.6697771 C82.8480376,10.2201486 83.8669045,9.07957178 85.1658812,8.24743948 C86.464858,7.41591436 87.9094688,7 89.4997139,7 C91.0899589,7 92.5345698,7.41591436 93.8338326,8.24743948 C95.1322371,9.07957178 96.1519624,10.2201486 96.8910058,11.6697771 C97.6300491,13.1197092 98,14.7357034 98,16.5177598 C98,18.3001198 97.6300491,19.9164177 96.8910058,21.3657426" id="Fill-11"></path>
                        <path d="M74.7166785,24.7128619 C74.5273243,24.9044791 74.2882896,25 73.9998581,25 C73.7108588,25 73.471824,24.9044791 73.2833215,24.7128619 C73.0939674,24.5215325 73,24.2792777 73,23.9863854 L73,1.0136146 C73,0.721297703 73.0939674,0.47904295 73.2833215,0.287138056 C73.471824,0.0963840169 73.7108588,0 73.9998581,0 C74.2882896,0 74.5273243,0.0963840169 74.7166785,0.287138056 C74.905181,0.47904295 75,0.721297703 75,1.0136146 L75,23.9863854 C75,24.2792777 74.905181,24.5215325 74.7166785,24.7128619" id="Fill-8"></path>
                    </g>
                </g>
            </g>
        </g>
    </g>
</svg>