<svg width="239" height="240" viewBox="0 0 239 240" fill="none" xmlns="http://www.w3.org/2000/svg">
<g filter="url(#filter0_f)">
<path d="M215.4 64.2981C245.875 116.945 226.957 184.743 174.323 215.053C121.688 245.363 62.7414 231.935 32.2668 179.289C23.9896 164.989 10.8587 144.933 9.45245 129.512C5.68138 88.1559 25.6255 46.48 63.9643 24.4025C116.599 -5.90741 184.926 11.6514 215.4 64.2981Z" fill="#143C6D" fill-opacity="0.15"/>
</g>
<path fill-rule="evenodd" clip-rule="evenodd" d="M27.6833 40.5412C2.78459 80.8025 6.76332 162.324 55.4581 195.928C101.195 227.492 133.26 213.878 197.675 174.289C203.815 170.515 209.181 165.509 213.686 159.592C208.535 167.848 201.911 174.75 194.007 179.608C129.592 219.198 97.5268 232.812 51.79 201.248C2.36425 167.139 -0.992873 83.6639 25.156 44.0759C25.9558 42.865 26.7989 41.6868 27.6833 40.5412ZM27.6833 40.5412C28.0571 39.9368 28.4373 39.3418 28.8241 38.7563C54.9729 -0.831676 127.3 -5.47167 180.958 24.164C236.623 54.908 240.896 123.85 213.686 159.592C236.705 122.696 230.306 58.7649 177.29 29.4837C125.273 0.754496 55.7121 4.2362 27.6833 40.5412Z" fill="#DF7AF8"/>
<path d="M130.72 214.16C66.2377 232.032 17.5195 177.347 13.5587 120.003C9.59795 62.6594 49.2299 7.89767 106.837 8.03695C187.989 8.23314 228.669 85.4552 222.672 125.769C209.696 212.986 186.226 198.776 130.72 214.16Z" fill="#F2A9FA"/>
<path fill-rule="evenodd" clip-rule="evenodd" d="M121.838 209.335C179.351 209.335 242.695 137.246 214.323 98.9755C202.711 83.3129 197.278 69.9508 192.556 58.3379C183.854 36.9377 177.568 21.4774 139.484 8.50656C83.7843 -10.4642 13.6173 50.6896 20.5367 116.107C23.0352 139.729 30.5259 152.725 43.0092 169.986C45.0334 172.784 46.8471 175.98 48.6777 179.205C52.0909 185.218 55.5632 191.336 60.5701 195.183C75.4332 206.601 100.487 209.335 121.838 209.335ZM127.137 203.437C181.46 203.437 214.307 141.402 214.307 115.636C214.307 107.087 208.908 99.5606 203.693 92.2901C200.615 87.9981 197.6 83.7955 195.798 79.5246C181.863 46.4986 160.705 22.3343 120.417 22.3343C66.093 22.3343 25.0403 58.4817 25.0403 111.098C25.0403 128.371 29.0458 134.577 35.303 144.272C39.576 150.893 44.8991 159.14 50.7137 173.65C63.3243 205.119 94.0979 204.269 117.871 203.612C121.111 203.523 124.221 203.437 127.137 203.437Z" fill="#FBD6FF"/>
<path d="M214.307 115.636C214.307 141.402 181.46 203.437 127.137 203.437C102.824 203.437 65.0431 209.408 50.7137 173.65C36.3844 137.893 25.0403 140.166 25.0403 111.098C25.0403 58.4817 66.093 22.3343 120.417 22.3343C160.705 22.3343 181.863 46.4986 195.798 79.5246C200.653 91.0302 214.307 102.041 214.307 115.636Z" fill="#270D9F"/>
<path d="M199.191 86.4388C207.197 108.334 198.494 171.233 152.226 188.075C131.518 195.613 101.194 212.4 77.8798 186.457C54.5655 160.514 45.6098 165.963 36.5787 141.262C20.231 96.55 43.9658 53.1056 90.2344 36.2637C124.549 23.7731 150.078 37.7472 172.208 61.4913C179.917 69.7632 194.968 74.8866 199.191 86.4388Z" fill="#432F9F"/>
<defs>
<filter id="filter0_f" x="0.409092" y="0.983997" width="238.182" height="238.607" filterUnits="userSpaceOnUse" color-interpolation-filters="sRGB">
<feFlood flood-opacity="0" result="BackgroundImageFix"/>
<feBlend mode="normal" in="SourceGraphic" in2="BackgroundImageFix" result="shape"/>
<feGaussianBlur stdDeviation="4.29545" result="effect1_foregroundBlur"/>
</filter>
</defs>
</svg>
