<svg width="550" height="1120" viewBox="0 0 550 1120" fill="none" xmlns="http://www.w3.org/2000/svg">
<path d="M89.6169 0.87912C40.6082 0.87912 0.878906 40.6323 0.878906 89.6703V1030.33C0.878906 1079.37 40.6082 1119.12 89.6169 1119.12H460.384C509.392 1119.12 549.122 1079.37 549.122 1030.33V89.6703C549.122 40.6323 509.392 0.87912 460.384 0.87912H89.6169ZM138.701 29.9212V34.5593C138.701 43.3343 139.285 46.8738 141.007 50.4265C141.291 51.0129 141.459 51.3334 142.173 52.6759C144.424 56.9071 147.722 60.2221 151.931 62.4846C156.743 65.0713 161.39 65.9734 172.135 65.9734H376.193C386.937 65.9734 391.584 65.0713 396.397 62.4846C400.606 60.2221 403.904 56.9071 406.155 52.6759C406.869 51.3334 407.037 51.0129 407.32 50.4265C409.042 46.8738 409.627 43.3343 409.627 34.5593V29.9212C409.627 27.4936 411.594 25.5256 414.02 25.5256H443.641C469.157 25.5256 480.46 27.7192 492.171 34.0149C502.502 39.5685 510.615 47.7229 516.139 58.1064C522.402 69.8769 524.584 81.235 524.584 106.88V1013.12C524.584 1038.77 522.402 1050.12 516.139 1061.89C510.615 1072.28 502.502 1080.43 492.171 1085.98C480.46 1092.28 469.157 1094.47 443.641 1094.47H106.359C80.8436 1094.47 69.5417 1092.28 57.8299 1085.98C47.4991 1080.43 39.3863 1072.28 33.8615 1061.89C27.5987 1050.12 25.4165 1038.77 25.4165 1013.12V106.88C25.4165 81.235 27.5987 69.8769 33.8615 58.1064C39.3863 47.7229 47.4991 39.5685 57.8299 34.0149C69.5417 27.7192 80.8436 25.5256 106.359 25.5256H134.308C136.734 25.5256 138.701 27.4936 138.701 29.9212Z" fill="url(#paint0_angular)"/>
<path d="M323.4 49.1928C318.054 49.1928 313.721 44.8668 313.721 39.5293C313.721 34.192 318.054 29.866 323.4 29.866C328.745 29.866 333.078 34.192 333.078 39.5293C333.078 44.8668 328.745 49.1928 323.4 49.1928Z" stroke="#608EC6"/>
<path d="M236.493 34.2581H291.509C293.811 34.2581 295.678 36.1266 295.678 38.4313C295.678 40.7362 293.811 42.6047 291.509 42.6047H236.493C234.189 42.6047 232.321 40.7362 232.321 38.4313C232.321 36.1266 234.189 34.2581 236.493 34.2581Z" stroke="#608EC6"/>
<path d="M138.7 29.9212V34.5593C138.7 43.3343 139.285 46.8739 141.006 50.4266C141.29 51.0129 141.458 51.3335 142.172 52.6759C144.424 56.9071 147.722 60.2221 151.931 62.4846C156.743 65.0715 161.39 65.9735 172.135 65.9735H376.193C386.936 65.9735 391.584 65.0715 396.397 62.4846C400.605 60.2221 403.904 56.9071 406.155 52.6759C406.868 51.3335 407.037 51.0129 407.32 50.4266C409.042 46.8739 409.627 43.3343 409.627 34.5593V29.9212C409.627 27.4936 411.593 25.5256 414.02 25.5256H443.641C469.157 25.5256 480.459 27.7194 492.171 34.0151C502.501 39.5685 510.614 47.7229 516.139 58.1064C522.401 69.8769 524.584 81.235 524.584 106.88V1013.12C524.584 1038.77 522.401 1050.12 516.139 1061.89C510.614 1072.28 502.501 1080.43 492.171 1085.99C480.459 1092.28 469.157 1094.47 443.641 1094.47H106.358C80.843 1094.47 69.5413 1092.28 57.8295 1085.99C47.4984 1080.43 39.3857 1072.28 33.8611 1061.89C27.5981 1050.12 25.416 1038.77 25.416 1013.12V106.88C25.416 81.235 27.5981 69.8769 33.8611 58.1064C39.3857 47.7229 47.4984 39.5685 57.8295 34.0151C69.5413 27.7194 80.843 25.5256 106.358 25.5256H134.307C136.733 25.5256 138.7 27.4936 138.7 29.9212Z" stroke="#608EC6"/>
<path d="M89.6164 0.87912C40.6077 0.87912 0.878418 40.6323 0.878418 89.6703V1030.33C0.878418 1079.37 40.6077 1119.12 89.6164 1119.12H460.383C509.391 1119.12 549.121 1079.37 549.121 1030.33V89.6703C549.121 40.6323 509.391 0.87912 460.383 0.87912H89.6164Z" stroke="#608EC6"/>
<defs>
<radialGradient id="paint0_angular" cx="0" cy="0" r="1" gradientUnits="userSpaceOnUse" gradientTransform="translate(275 549) rotate(-90) scale(548 268.669)">
<stop stop-color="#E5E4FF"/>
<stop offset="0.114724" stop-color="#E6D9FF"/>
<stop offset="0.228443" stop-color="#E7D0FF"/>
<stop offset="0.306905" stop-color="#E8CBFF"/>
<stop offset="0.494188" stop-color="#E5F1FF" stop-opacity="0"/>
<stop offset="0.692451" stop-color="#E6E0FF"/>
<stop offset="0.780102" stop-color="#E5E3FF"/>
<stop offset="0.883839" stop-color="#E5EAFF"/>
<stop offset="1" stop-color="#E5E6FF"/>
</radialGradient>
</defs>
</svg>
