<svg width="44" height="47" viewBox="0 0 44 47" fill="none" xmlns="http://www.w3.org/2000/svg">
<path d="M25.1269 1L1 14.6083L7.07255 17.8989L25.1269 7.67384" stroke="#DF7AF8" stroke-width="1.22532" stroke-miterlimit="10" stroke-linejoin="round"/>
<path d="M25.1247 15.0416L7.11741 25.2494L7.07031 17.8989L25.1247 7.67384V15.0416Z" stroke="#DF7AF8" stroke-width="1.22532" stroke-miterlimit="10" stroke-linejoin="round"/>
<path d="M7.11965 25.2494L1 21.6479V14.6083L7.07255 17.8989L7.11965 25.2494Z" stroke="#DF7AF8" stroke-width="1.22532" stroke-miterlimit="10" stroke-linejoin="round"/>
<path d="M19.0078 25.1913L25.1275 21.5898V15.0212L19.0533 18.4845L19.0078 25.1913Z" stroke="#DF7AF8" stroke-width="1.22532" stroke-miterlimit="10" stroke-linejoin="round"/>
<path d="M25.0801 35.3614L31.1982 31.7599V25.1913L25.1256 28.653L25.0801 35.3614Z" stroke="#DF7AF8" stroke-width="1.22532" stroke-miterlimit="10" stroke-linejoin="round"/>
<path d="M19.0078 25.1913L25.1275 21.5898L31.2 25.1913L25.1275 28.653L19.0078 25.1913Z" stroke="#DF7AF8" stroke-width="1.22532" stroke-miterlimit="10" stroke-linejoin="round"/>
<path d="M25.1252 7.67384L37.0505 14.4309L43.1184 11.1418L25.1252 1L25.0781 1.02669" stroke="#DF7AF8" stroke-width="1.22532" stroke-miterlimit="10" stroke-linejoin="round"/>
<path d="M25.127 15.0416L37.0052 21.7814L37.0523 14.4309L25.127 7.67384V15.0416Z" stroke="#DF7AF8" stroke-width="1.22532" stroke-miterlimit="10" stroke-linejoin="round"/>
<path d="M37.0059 21.7814L43.1208 18.1815V11.1418L37.053 14.4309L37.0059 21.7814Z" stroke="#DF7AF8" stroke-width="1.22532" stroke-miterlimit="10" stroke-linejoin="round"/>
<path d="M25.0804 35.3614L25.126 42.2315L19.0063 45.9193L13.0625 42.1907V21.8787L19.0063 25.1913" stroke="#DF7AF8" stroke-width="1.22532" stroke-miterlimit="10" stroke-linejoin="round"/>
<path d="M25.1275 28.653L19.0957 32.0896L19.0078 45.9193" stroke="#DF7AF8" stroke-width="1.22532" stroke-miterlimit="10" stroke-linejoin="round"/>
<path d="M25.0819 35.3614L19.0957 32.0896" stroke="#DF7AF8" stroke-width="1.22532" stroke-miterlimit="10" stroke-linejoin="round"/>
</svg>
