<svg width="43" height="45" viewBox="0 0 43 45" fill="none" xmlns="http://www.w3.org/2000/svg">
<path d="M32.6317 25.996L25.8213 28.0966L21.7583 33.8397L17.4988 28.1698L10.8848 25.6399L15.0205 20.362L14.8197 13.2419L21.6724 15.957L28.4727 13.3194L28.381 20.8372L32.6317 25.996Z" stroke="#DF7AF8" stroke-width="1.22532" stroke-miterlimit="10" stroke-linecap="round" stroke-linejoin="round"/>
<path d="M33.9028 31.2524L41.956 29.9171L36.611 22.7727L41.8527 16.2513L34.3044 14.3834L34.4543 5.84475L26.2439 9.05229L21.999 1.53165L17.1807 8.85703L9.43015 5.83326L9.61642 13.9024L1.74362 16.2556L7.04503 21.8624L1 28.6953L9.60478 30.4914L8.54683 40.4644L16.9974 35.8283L21.4111 43.6519L26.2221 36.0293L33.9202 39.982L33.9028 31.2524Z" stroke="#DF7AF8" stroke-width="1.22532" stroke-miterlimit="10" stroke-linecap="round" stroke-linejoin="round"/>
</svg>
